<svg width="96" height="98" viewBox="0 0 96 98" fill="none" xmlns="http://www.w3.org/2000/svg">
<rect width="95.9685" height="97.9999" fill="#07A869"/>
<mask id="mask0_167_4743" style="mask-type:luminance" maskUnits="userSpaceOnUse" x="1" y="68" width="94" height="29">
<path d="M94.9685 68.8093H1V96.9999H94.9685V68.8093Z" fill="white"/>
</mask>
<g mask="url(#mask0_167_4743)">
<path d="M28.8418 94.405L31.4623 97.0001L33.9006 94.405L31.3166 91.8455L28.8418 94.405Z" fill="white"/>
<path d="M59.7038 71.6892L57.1198 69.1296L54.645 71.6892L57.2655 74.2487L59.7038 71.6892Z" fill="white"/>
<path d="M77.3903 74.5331L74.8064 71.938L72.3315 74.5331L74.9519 77.0926L77.3903 74.5331Z" fill="white"/>
<path d="M94.9685 84.913C94.8957 83.5622 94.6045 82.3537 94.1314 81.3227C93.6583 80.2917 92.9668 79.4741 92.1299 78.8698C91.2928 78.2654 90.2737 77.981 89.0728 77.981C88.2357 77.981 87.4351 78.1587 86.7436 78.5498C86.052 78.9053 85.397 79.403 84.8148 80.0073C84.2325 80.6116 83.7228 81.2516 83.2497 81.9626C82.7766 82.6735 82.3763 83.3489 82.0123 84.0244C81.6848 84.5932 81.3937 85.0553 81.1025 85.4108C80.8477 85.7663 80.5566 86.0151 80.2654 86.1929C79.9743 86.3707 79.6468 86.4418 79.2828 86.4418H79.21H78.1546C77.6088 86.4418 77.0992 86.4062 76.6262 86.3351C76.153 86.264 75.6799 86.1573 75.2431 86.0507C75.2068 86.0507 75.2068 86.0507 75.1703 86.0151C75.4614 85.2686 75.7526 84.4866 76.0074 83.6689C76.3349 82.5668 76.6625 81.3582 76.9537 80.0073L72.8048 81.4293C72.7683 81.927 72.732 82.5313 72.6228 83.2067C72.5136 83.8822 72.4045 84.4866 72.2588 85.0908C72.1133 85.6952 72.004 86.1218 71.8949 86.4418H68.4739H68.1828C67.3457 86.4418 66.5451 86.3707 65.7808 86.1929C65.5988 86.1573 65.4168 86.0862 65.2713 86.0507C65.2713 85.6952 65.3077 85.3397 65.2713 84.9841C65.2348 83.4556 64.9437 82.1048 64.3977 80.896C63.8519 79.723 63.0877 78.7987 62.0322 78.1232C61.0131 77.4477 59.7031 77.1279 58.138 77.1279C56.7188 77.1279 55.3357 77.4833 53.9528 78.1943C52.5699 78.9053 51.1869 79.9362 49.8403 81.3227C48.5302 82.6735 47.22 84.3799 45.9462 86.4062C45.8734 86.4062 45.7643 86.4062 45.6914 86.3707C45.2183 86.2996 44.7452 86.1929 44.3085 86.0862C44.272 86.0862 44.272 86.0862 44.2357 86.0507C44.5268 85.3041 44.818 84.5221 45.0728 83.7045C45.4003 82.6024 45.7279 81.3938 46.0191 80.0428L41.8702 81.4649C41.8337 81.9626 41.7974 82.5668 41.6882 83.2423C41.5789 83.9178 41.4697 84.5221 41.3242 85.1264C41.1786 85.7307 41.0694 86.1573 40.9603 86.4773H37.3937H37.1025H36.0471C35.5012 86.4773 34.9917 86.4418 34.5186 86.3707C34.0454 86.2996 33.5723 86.1929 33.1357 86.0862C33.0992 86.0862 33.0992 86.0862 33.0628 86.0507C33.354 85.3041 33.6451 84.5221 33.8999 83.7045C34.2274 82.6024 34.5551 81.3938 34.8462 80.0428L30.6972 81.4649C30.6608 81.9626 30.6245 82.5668 30.5154 83.2423C30.406 83.9178 30.2969 84.5221 30.1514 85.1264C30.0057 85.7307 29.8966 86.1573 29.7874 86.4773H26.3663H26.0752C25.2382 86.4773 24.4375 86.4062 23.6732 86.2284C23.4914 86.1929 23.3094 86.1218 23.1637 86.0862C23.1637 85.7307 23.2002 85.3752 23.1637 85.0197C23.1274 83.4911 22.8362 82.1403 22.2903 80.9316C21.7443 79.7586 20.9802 78.8342 19.9248 78.1587C18.8694 77.4833 17.5955 77.1635 16.0306 77.1635C14.6112 77.1635 13.2283 77.5188 11.8817 78.2298C10.5351 78.9409 9.26137 79.9717 8.06037 81.3938C7.8784 81.6071 7.69643 81.8559 7.47808 82.1048V68.8093H3.83871V86.4062H1V89.819H3.83871H7.40529H22.5086C22.5814 89.5701 22.6179 89.3568 22.6543 89.108C22.6906 89.108 22.6906 89.1435 22.7271 89.1435C23.7825 89.6057 24.8743 89.819 25.966 89.819H26.2572H30.952C31.2068 89.4635 31.4251 89.0724 31.6434 88.7169C31.6434 88.7169 31.6434 88.7169 31.6799 88.7169C32.2986 89.0369 33.0265 89.2857 33.8635 89.499C34.7006 89.7123 35.6832 89.819 36.8477 89.819H37.0297H37.3209H42.0157C42.2705 89.4635 42.4888 89.0724 42.7071 88.7169C42.7071 88.7169 42.7071 88.7169 42.7436 88.7169C43.3623 89.0369 44.0902 89.2857 44.9272 89.499C45.7643 89.7123 46.7469 89.819 47.9114 89.819H47.9843H48.0934H64.5071C64.5797 89.5701 64.6162 89.3568 64.6525 89.108C64.6889 89.108 64.689 89.1435 64.7254 89.1435C65.7808 89.6057 66.8726 89.819 67.9645 89.819H68.2556H72.9503C73.2051 89.4635 73.4234 89.0724 73.6419 88.7169C73.6419 88.7169 73.6417 88.7169 73.6782 88.7169C74.2969 89.0369 75.0248 89.2857 75.8619 89.499C76.6988 89.7123 77.6814 89.819 78.8462 89.819H79.028H79.1008H79.3192C80.0471 89.7834 80.7022 89.6768 81.248 89.4635C81.8305 89.2146 82.3399 88.8947 82.7766 88.5036C82.9951 88.2903 83.177 88.077 83.3589 87.8637C83.3954 87.8992 83.4317 87.9703 83.4682 88.0059C84.014 88.5391 84.6328 89.0013 85.2877 89.3568C85.9428 89.7123 86.6708 89.9612 87.4351 90.1388C88.1993 90.3166 88.9636 90.3877 89.7642 90.3877C90.5648 90.3877 91.3291 90.281 92.1299 90.1032C92.9305 89.9256 93.6583 89.6768 94.3862 89.3213C94.8594 87.757 95.0413 86.264 94.9685 84.913ZM19.5608 86.4062H7.51448C7.9512 85.6952 8.42431 85.0553 8.89743 84.4866C9.98925 83.1712 11.1174 82.1759 12.2457 81.5004C13.3739 80.8249 14.5021 80.505 15.5211 80.505C16.5401 80.505 17.3408 80.7538 17.9594 81.216C18.5417 81.7137 18.9785 82.389 19.2332 83.2778C19.488 84.2022 19.5972 85.233 19.5608 86.4062ZM49.7676 86.4062C50.2043 85.7663 50.6411 85.1619 51.0777 84.6288C52.1695 83.2778 53.2977 82.2825 54.3896 81.5715C55.5177 80.8605 56.6096 80.505 57.7014 80.505C58.684 80.505 59.4846 80.7538 60.067 81.216C60.6493 81.6782 61.0496 82.389 61.3043 83.2778C61.5591 84.1666 61.6683 85.1975 61.6319 86.3707H49.7676V86.4062ZM91.7294 86.975C90.9288 87.0817 90.1282 87.0817 89.4003 86.975C88.636 86.8684 87.9809 86.7262 87.3259 86.4773C86.7071 86.2285 86.1248 85.944 85.6517 85.6241C85.4697 85.5174 85.3242 85.3752 85.1786 85.2686C85.7245 84.3088 86.1977 83.5622 86.5616 83.029C86.9983 82.4246 87.3986 81.9981 87.7625 81.7848C88.1265 81.5715 88.454 81.4649 88.7816 81.4649C89.2548 81.4649 89.6551 81.6071 90.0554 81.8915C90.4557 82.1759 90.7833 82.6024 91.038 83.1001C91.2928 83.6334 91.5111 84.2022 91.6203 84.8777C91.7294 85.553 91.7659 86.2284 91.7294 86.975Z" fill="white"/>
</g>
<path d="M57.4058 18.5964C59.0905 18.5964 60.4478 17.2392 60.4478 15.5544C60.4478 13.8696 59.0905 12.5125 57.4058 12.5125C55.721 12.5125 54.3638 13.8696 54.3638 15.5544C54.3638 17.2392 55.721 18.5964 57.4058 18.5964ZM57.4058 12.9804C57.8505 12.9804 58.2716 13.0975 58.6226 13.2847C58.5289 13.3548 58.4588 13.4718 58.4588 13.5888H58.8097V13.4016C59.5118 13.8696 59.9798 14.6652 59.9798 15.5544C59.9798 16.9818 58.8332 18.1284 57.4058 18.1284C55.9785 18.1284 54.8319 16.9818 54.8319 15.5544C54.8319 14.127 55.9785 12.9804 57.4058 12.9804Z" fill="white"/>
<path d="M36.4872 18.7604C38.1721 18.7604 39.5293 17.4033 39.5293 15.7185C39.5293 14.0337 38.1721 12.6765 36.4872 12.6765C34.8025 12.6765 33.4453 14.0337 33.4453 15.7185C33.4453 17.4033 34.8259 18.7604 36.4872 18.7604ZM36.4872 13.1445C37.9146 13.1445 39.0612 14.2911 39.0612 15.7185C39.0612 17.1459 37.9146 18.2924 36.4872 18.2924C35.0598 18.2924 33.9133 17.1459 33.9133 15.7185C33.9133 14.2911 35.0833 13.1445 36.4872 13.1445Z" fill="white"/>
<path d="M46.9472 12.4895C48.632 12.4895 49.9893 11.1323 49.9893 9.4475C49.9893 7.76271 48.632 6.40552 46.9472 6.40552C45.2625 6.40552 43.9053 7.76271 43.9053 9.4475C43.9053 11.1323 45.2625 12.4895 46.9472 12.4895ZM46.9472 6.87353C47.9066 6.87353 48.7257 7.38832 49.1702 8.16051C49.0065 8.18391 48.8192 8.09031 48.7959 8.30091C48.7724 8.58171 48.9597 8.48811 49.1702 8.51151V8.18391C49.217 8.25412 49.2405 8.32431 49.2872 8.39451V8.48811H49.334C49.3575 8.51151 49.3575 8.55831 49.3808 8.6051C49.3575 8.6051 49.334 8.6051 49.3107 8.6051L49.334 8.95611H49.4978C49.4978 9.0029 49.5213 9.0497 49.5213 9.0965H49.3107V9.4241H49.5446C49.5446 9.4241 49.5446 9.4241 49.5446 9.4475C49.5446 9.4709 49.5446 9.5177 49.5446 9.5411H49.334L49.3575 9.8921C49.4276 9.9155 49.4745 9.9389 49.5213 9.9389C49.5213 9.98569 49.4978 10.0091 49.4978 10.0559H49.334V10.3601H49.3808C49.0064 11.3195 48.0704 12.0215 46.9707 12.0215C45.9411 12.0215 45.0518 11.4131 44.654 10.5473H46.7367C46.9472 10.5473 47.0642 10.7813 47.2515 10.8515C47.3217 10.7813 46.9005 10.5005 46.8302 10.4771H44.6307C44.6307 10.4537 44.6072 10.4303 44.6072 10.4069H46.8302C46.8537 10.4069 47.0642 10.5239 47.111 10.5473C47.1578 10.5941 47.3685 10.8749 47.4153 10.8281V8.6753C47.4153 8.6285 47.228 8.37111 47.1813 8.32431C47.111 8.25412 46.8302 8.13711 46.7367 8.13711H44.8179C45.1923 7.36492 46.0113 6.87353 46.9472 6.87353Z" fill="white"/>
<path d="M66.9073 1H28.1338C22.1435 1 17.2764 5.86715 17.2764 11.8575V50.6309C17.2764 56.6213 22.1435 61.4884 28.1338 61.4884H45.0986H49.919H66.8838C72.8741 61.4884 77.7414 56.6213 77.7414 50.6309V11.8575C77.7414 5.86715 72.8976 1 66.9073 1ZM62.3911 56.9723H49.919V46.5126H59.7469V45.4362H35.926V46.5126H45.0986V56.9723H32.6266C26.6363 56.9723 21.7692 52.1052 21.7692 46.1148V34.9062L25.7237 42.8154C26.1215 42.8622 25.9108 42.3708 25.8407 42.1603C25.162 40.1245 24.2728 38.1588 23.641 36.1231C23.5943 35.9593 23.4305 35.6552 23.6645 35.6552C31.5502 36.5678 39.6465 38.2056 46.1048 43.0494C45.4497 41.388 43.6245 40.0075 42.1268 39.1182C36.2535 35.5615 28.5549 34.3448 21.7692 33.4087V16.3503C21.7692 10.3599 26.6363 5.49277 32.6266 5.49277H62.3911C68.3815 5.49277 73.2486 10.3599 73.2486 16.3503V33.5023C66.4158 34.4851 58.4365 35.7487 52.7504 39.6097C52.2823 39.9373 49.1234 42.5581 49.568 43.0261C56.003 38.1823 64.0993 36.5443 71.985 35.6552C72.219 35.6552 72.0552 35.9358 72.0083 36.1231C71.3766 38.1588 70.4875 40.1245 69.8088 42.1603C69.7385 42.3708 69.5045 42.8622 69.9258 42.8154L73.2486 36.17V46.0915C73.2486 52.1052 68.3815 56.9723 62.3911 56.9723Z" fill="white"/>
<path d="M42.0571 15.9525C42.408 16.0695 42.876 15.6717 43.2036 15.5547C45.4968 14.6655 47.322 14.4315 49.7321 15.1101C50.1534 15.2271 51.2298 15.7419 51.5106 15.7653C51.8381 15.7887 52.0956 15.4143 52.0019 15.1101C51.9084 14.7825 50.4575 14.3379 50.0832 14.2209C48.7025 13.8231 47.2751 13.7061 45.8244 13.8465C45.1458 13.9167 44.3737 14.1273 43.7184 14.3613C43.3441 14.5017 42.2677 14.9229 41.9869 15.1335C41.6593 15.3909 41.7061 15.8589 42.0571 15.9525Z" fill="white"/>
<path d="M39.1553 20.5623C39.1553 20.9601 39.4829 21.3111 39.904 21.3111C40.3018 21.3111 40.6528 20.9834 40.6528 20.5623C40.6528 20.4686 40.6295 20.3516 40.606 20.2815C40.7933 20.0475 40.9571 19.7433 41.1209 19.5327C43.4842 16.8886 46.8305 15.8589 50.1765 17.3097C51.6742 17.9648 52.7271 19.1349 53.8036 20.3283C55.2778 20.4218 53.8737 18.9243 53.4291 18.4563C51.6742 16.6311 49.1236 15.5547 46.573 15.7185C44.5138 15.8589 42.3845 16.8418 40.9336 18.316C40.6763 18.5733 40.0445 19.2987 39.7871 19.8368C39.4127 19.8837 39.1553 20.1878 39.1553 20.5623Z" fill="white"/>
<path d="M28.5542 29.6177L29.42 33.4085C31.1047 33.8063 32.7895 33.9935 34.4509 34.4381C39.2478 35.725 43.5768 38.3693 47.1803 41.7388C47.3207 41.575 45.7998 39.4222 45.5658 39.1414C41.3538 34.1105 34.755 31.3259 28.5542 29.6177Z" fill="white"/>
<path d="M66.252 33.4085L67.1178 29.6177C60.9403 31.3259 54.2947 34.1105 50.1062 39.1414C49.8722 39.4222 48.3278 41.575 48.4916 41.7388C52.0952 38.3693 56.4241 35.725 61.2211 34.4381C62.8824 33.9935 64.5671 33.8063 66.252 33.4085Z" fill="white"/>
<path d="M35.2705 27.6759L35.9491 31.3263C40.5121 32.3792 43.9519 35.8191 46.9704 39.1418C45.6835 34.9065 41.8926 31.2326 38.1488 29.0096C37.751 28.7756 35.528 27.4184 35.2705 27.6759Z" fill="white"/>
<path d="M59.7229 31.3262L60.4015 27.6759C60.1207 27.4419 57.9446 28.7756 57.5234 29.0096C53.8027 31.2326 49.9887 34.9063 48.7017 39.1418C51.7202 35.8189 55.16 32.3791 59.7229 31.3262Z" fill="white"/>
<path d="M49.2636 31.022C49.6614 31.022 50.0125 30.6944 50.0125 30.2733C50.0125 29.8755 49.6849 29.5243 49.2636 29.5243C49.1934 29.5243 49.1233 29.5478 49.0531 29.5478C48.7255 29.384 48.351 29.1968 48.2107 29.1032C46.7131 28.0736 45.3326 26.1081 45.5197 24.2126C45.6132 23.183 46.6428 22.3407 47.6491 22.832C48.7956 23.3937 48.6318 25.6166 50.0359 26.4356C50.8548 26.9037 52.212 26.6696 52.8673 26.0144C54.3414 24.5402 53.2884 21.6153 52.1419 20.2113C50.0125 17.5905 46.5727 17.0289 43.6244 18.7137C40.9801 20.2347 40.3015 23.1363 40.5355 26.0144C40.5355 26.1314 40.559 26.2718 40.5823 26.4122C40.5122 26.5292 40.4653 26.6696 40.4653 26.81C40.4653 27.2078 40.793 27.5588 41.2141 27.5588C41.6119 27.5588 41.9629 27.2312 41.9629 26.81C41.9629 26.5292 41.7992 26.2953 41.5651 26.1548C41.5184 25.9676 41.4949 25.7805 41.4716 25.6166C41.3779 22.2704 42.548 19.3222 46.2452 18.7839C49.4743 18.3159 53.031 21.0537 52.6333 24.4232C52.4928 25.7336 50.8081 26.2718 50.0359 25.1487C49.2169 23.9786 49.3573 22.0131 47.3214 21.7791C45.3559 21.5451 44.4433 23.4405 44.5837 25.172C44.7475 27.0674 46.6428 29.5946 48.5148 30.4604C48.6318 30.7881 48.9126 31.022 49.2636 31.022Z" fill="white"/>
<path d="M51.2297 25.2421C51.6275 25.2421 51.9784 24.9145 51.9784 24.4934C51.9784 24.2359 51.8381 24.0019 51.6275 23.8616C51.5573 23.3701 51.3701 22.8085 51.2765 22.5279C50.4576 20.5857 48.5621 19.5326 46.4561 19.8134C45.4968 19.9538 44.2097 20.7027 43.578 21.428C41.3783 23.9084 42.7122 27.9566 44.6075 30.2264C44.6777 30.2966 44.748 30.4136 44.8415 30.5071C44.8415 30.5539 44.8182 30.6007 44.8182 30.6475C44.8182 31.0453 45.1458 31.3963 45.567 31.3963C45.9648 31.3963 46.3157 31.0687 46.3157 30.6475C46.3157 30.2731 46.0349 29.9689 45.6606 29.9221C45.4265 29.6413 45.1458 29.3605 45.0053 29.1967C43.3908 26.9972 42.3144 23.1362 45.099 21.3811C47.4858 19.9071 50.1533 21.1005 50.668 23.8148C50.6915 23.8849 50.6915 23.9552 50.6915 24.0254C50.5745 24.1657 50.5042 24.3296 50.5042 24.5167C50.4809 24.9145 50.8085 25.2421 51.2297 25.2421Z" fill="white"/>
<path d="M51.9084 28.0267C51.8382 28.0501 51.7446 28.0501 51.6744 28.0501C49.9194 28.0267 48.2112 27.0673 47.6262 25.3591C47.4859 24.9145 47.5561 23.9552 46.9008 24.0254C46.1052 24.0955 46.7605 25.8037 46.9476 26.2015C47.8134 28.0267 49.8726 29.0796 51.8382 28.9861C51.9084 28.9861 52.0254 28.9626 52.1659 28.9393C52.2828 29.0095 52.4232 29.0563 52.5637 29.0563C52.9615 29.0563 53.3124 28.7287 53.3124 28.3075C53.3124 27.9097 52.9848 27.5588 52.5637 27.5588C52.2828 27.5821 52.0254 27.7692 51.9084 28.0267Z" fill="white"/>
<path d="M58.8104 16.9821V13.7061C58.7403 13.6827 58.4595 13.6827 58.4595 13.7997V17.0523H58.6935C58.7168 17.0756 58.8104 17.0289 58.8104 16.9821Z" fill="white"/>
<path d="M55.8623 17.5203C55.8623 17.5669 55.8623 17.5904 55.9091 17.6138C56.0026 17.6372 56.2133 17.6372 56.2133 17.4968C56.2133 16.5842 56.2133 15.6716 56.2133 14.759C56.2133 14.7122 56.2366 14.642 56.2133 14.5952H56.0026L55.9325 14.6186C55.8388 14.6654 55.9091 14.876 55.8623 14.9696V17.5203Z" fill="white"/>
<path d="M58.2959 16.9821V14.0337H58.0853C58.0619 14.0337 57.9683 14.0805 57.9683 14.1273V17.0757H58.2022C58.2022 17.0757 58.2959 17.0055 58.2959 16.9821Z" fill="white"/>
<path d="M57.4307 14.6888V17.0756H57.6881C57.7115 17.0756 57.7818 17.0053 57.7818 16.982V14.5718H57.5478C57.5243 14.5718 57.4307 14.642 57.4307 14.6888Z" fill="white"/>
<path d="M56.5173 14.5718C56.4939 14.5718 56.4237 14.6186 56.4004 14.6186C56.4004 14.6654 56.4004 14.6888 56.4004 14.7122V14.7356C56.3769 15.4844 56.4237 16.2566 56.4004 17.0053V17.0288C56.4237 17.0521 56.6343 17.0288 56.6577 17.0288C56.681 17.0288 56.7278 16.9351 56.7278 16.9118V14.5952C56.7278 14.5952 56.7045 14.5718 56.7278 14.5718H56.5173Z" fill="white"/>
<path d="M56.7282 14.1275C56.7049 14.0573 56.6112 14.0105 56.5411 14.0339C56.4006 14.0573 56.3304 14.1977 56.4006 14.3147C56.5411 14.5019 56.8219 14.3381 56.7282 14.1275Z" fill="white"/>
<path d="M57.055 14.3847C57.3358 14.4081 57.3125 13.9869 57.0316 14.0337C56.8443 14.0805 56.8678 14.3847 57.055 14.3847Z" fill="white"/>
<path d="M58.0844 17.5669C58.2482 17.5902 58.3417 17.4031 58.2482 17.2861C58.1312 17.1456 57.8972 17.2159 57.9206 17.4031C57.9206 17.4732 58.0142 17.5669 58.0844 17.5669Z" fill="white"/>
<path d="M57.7105 14.3614C57.8743 14.2678 57.7807 13.987 57.57 14.0338C57.453 14.0572 57.4062 14.1742 57.4297 14.2678C57.4765 14.3848 57.6169 14.4316 57.7105 14.3614Z" fill="white"/>
<path d="M57.0325 17.1226H56.9854V17.146H57.0325V17.1226Z" fill="white"/>
<path d="M56.9628 14.6188L56.916 14.6891V17.0524C57.0097 17.0524 57.1735 17.0759 57.2203 17.0056L57.2437 16.9589V14.5954C57.1968 14.572 57.0097 14.572 56.9628 14.6188Z" fill="white"/>
<path d="M35.7384 16.514C35.7619 16.514 35.8321 16.5842 35.8554 16.5842C36.2767 16.8415 36.7915 16.8415 37.1658 16.514C37.5871 16.8182 38.1252 16.865 38.5698 16.5842C38.64 16.5374 38.7102 16.4906 38.757 16.4204C38.8272 16.3736 38.757 16.3502 38.7102 16.3736C38.3592 16.5608 37.9849 16.6076 37.6338 16.4204C37.5871 16.397 37.3764 16.28 37.3764 16.2566C37.3531 16.2098 37.4466 16.1864 37.3998 16.163C37.3531 16.1162 37.3063 16.1864 37.2828 16.163C37.2594 16.163 37.1425 16.0226 37.119 15.9992C37.0956 15.9758 37.0956 15.9758 37.0956 15.9758C37.0723 15.929 37.0255 15.8354 37.002 15.7886C36.9786 15.7418 36.9786 15.6716 36.9553 15.6248C36.9553 15.6014 36.9553 15.6014 36.9553 15.578C36.9553 15.5312 36.9786 15.5078 36.9318 15.5312C36.9318 15.5078 36.9318 15.4844 36.9318 15.4844C36.9553 15.4142 36.9553 15.3206 36.9318 15.2504C36.9318 15.227 36.9318 15.2036 36.9553 15.2036C36.9553 15.1802 36.9553 15.1802 36.9786 15.1568C36.9786 15.1334 36.9786 15.1334 36.9786 15.11C37.002 15.0632 37.0255 14.993 37.0255 14.9462V14.8994C37.0255 14.8994 37.0488 14.9228 37.0488 14.876V14.8526C37.0488 14.8526 37.0723 14.876 37.0723 14.8292C37.0723 14.8292 37.0723 14.8292 37.0723 14.8058C37.119 14.7824 37.119 14.6888 37.1658 14.7356C37.2126 14.759 37.3296 14.9696 37.3531 15.0164C37.4701 15.227 37.5403 15.4376 37.5403 15.6716C37.5403 15.7184 37.4934 15.929 37.4934 15.9524L37.5636 15.9992C37.5871 15.9992 37.6572 15.8354 37.6806 15.812C37.8444 15.3674 37.7274 14.8292 37.3764 14.5016C37.2594 14.5484 37.1425 14.642 37.0488 14.7356C37.0488 14.7356 37.0488 14.759 37.0255 14.759C37.0255 14.759 37.0255 14.759 37.002 14.7824C37.002 14.7824 37.002 14.7824 36.9786 14.8058C36.9553 14.8292 36.9085 14.9228 36.9085 14.9228C36.9085 14.9228 36.9085 14.8994 36.885 14.9462C36.8616 14.9696 36.8383 15.0632 36.8383 15.0632C36.8383 15.0632 36.8383 15.0398 36.8148 15.0866C36.8148 15.11 36.8148 15.11 36.7915 15.1334C36.768 15.1802 36.768 15.1802 36.7447 15.2504V15.2738C36.7447 15.2738 36.7212 15.2738 36.7212 15.2972C36.7212 15.3206 36.7212 15.3206 36.7212 15.344C36.6978 15.344 36.6978 15.3674 36.6978 15.3908C36.6978 15.4142 36.6978 15.4142 36.6978 15.4376C36.6978 15.461 36.6978 15.461 36.6978 15.4844C36.6978 15.5312 36.6978 15.6014 36.6978 15.6482C36.6978 15.6716 36.6978 15.6716 36.6978 15.695V15.7184C36.6978 15.7418 36.6978 15.7652 36.7212 15.7652V15.7886C36.7212 15.812 36.7212 15.8354 36.7447 15.8354V15.8588C36.7447 15.8822 36.768 15.9758 36.7915 15.9758C36.7915 15.9992 36.7915 15.9992 36.7915 16.0226C36.7915 16.0694 36.8148 16.046 36.8148 16.046C36.8148 16.046 36.8383 16.1162 36.8383 16.1396V16.163H36.8616C36.8616 16.163 36.8616 16.163 36.8616 16.1864C36.885 16.2332 36.8616 16.1864 36.885 16.2098C36.885 16.2098 36.9553 16.3268 36.9786 16.3268L37.002 16.3502C37.002 16.3736 36.9085 16.397 36.885 16.397C36.6042 16.4906 36.3234 16.4906 36.0427 16.4204C35.9959 16.4204 35.9022 16.3736 35.8554 16.3502C35.8321 16.3268 35.8789 16.28 35.8789 16.2566C35.9257 16.2566 35.9257 16.2098 35.9257 16.1864V16.163H35.9491V16.1396V16.1162H35.9724V16.0928C35.9724 16.0694 35.9724 16.046 35.9959 16.046C36.0192 16.046 36.066 15.929 36.066 15.9056V15.8822C36.0894 15.8588 36.0894 15.8354 36.0894 15.812C36.0894 15.7886 36.0894 15.7418 36.1129 15.7184C36.1129 15.7184 36.1362 15.695 36.1362 15.6716C36.1362 15.578 36.1362 15.461 36.1129 15.3908C36.1129 15.3674 36.1129 15.344 36.1129 15.344C36.1129 15.2738 36.066 15.1802 36.0427 15.11C36.0427 15.0866 36.0427 15.0632 36.0192 15.0632C36.0192 15.0398 35.9959 15.0164 35.9959 14.9696C35.9724 14.9228 35.9724 14.9462 35.9724 14.9462C35.9724 14.9462 35.9724 14.9228 35.9491 14.8994C35.9257 14.8526 35.9257 14.876 35.9257 14.876C35.9022 14.8526 35.9022 14.8292 35.8789 14.8058C35.8789 14.8058 35.9022 14.759 35.8554 14.7824C35.8554 14.759 35.8321 14.759 35.8321 14.7356C35.7619 14.6186 35.6214 14.525 35.4811 14.4548C35.0833 14.8292 34.9896 15.4844 35.2938 15.9524C35.4343 15.9056 35.3641 15.8822 35.3641 15.7886C35.3173 15.5312 35.3406 15.3908 35.4343 15.1568C35.4811 15.0398 35.6449 14.759 35.7151 14.6888C35.7619 14.642 35.7384 14.7122 35.7619 14.7356C35.7619 14.759 35.7852 14.7356 35.7852 14.759C35.8086 14.7824 35.8086 14.8526 35.8321 14.876C35.8321 14.8994 35.8086 14.8994 35.8554 14.8994C35.8554 14.9228 35.8554 14.9228 35.8554 14.9462C35.8789 15.0164 35.8789 15.0866 35.9022 15.1568C35.9022 15.1802 35.9022 15.1802 35.9022 15.2036C35.9022 15.2504 35.9257 15.2504 35.9257 15.2738C35.9257 15.344 35.9257 15.3674 35.9257 15.4376C35.9257 15.461 35.9022 15.461 35.9022 15.5078C35.9022 15.5312 35.9022 15.5312 35.9022 15.5546C35.8789 15.5546 35.8789 15.578 35.8789 15.6014V15.6248C35.8554 15.6716 35.8554 15.7184 35.8321 15.7652V15.812C35.8321 15.812 35.8086 15.7886 35.8086 15.8354V15.8588C35.8086 15.8588 35.7852 15.8354 35.7852 15.8822V15.9056C35.7384 15.9056 35.7619 15.929 35.7384 15.9524C35.7151 15.9992 35.6682 16.0928 35.6214 16.1162C35.6214 16.1162 35.6214 16.1162 35.5981 16.1396C35.5981 16.1396 35.5746 16.1864 35.5513 16.1864L35.4811 16.163C35.4811 16.163 35.5044 16.1162 35.4576 16.1396C35.4343 16.1396 35.4576 16.163 35.4576 16.163C35.4576 16.163 35.4343 16.1396 35.4343 16.1864C35.4343 16.2098 35.4343 16.2332 35.4576 16.2332C35.4576 16.2332 35.4576 16.2332 35.4576 16.2566C35.4576 16.28 35.4576 16.28 35.4576 16.3034C35.4108 16.3268 35.4343 16.3268 35.4343 16.3268C35.4108 16.3502 35.3874 16.3502 35.3641 16.3736C35.3173 16.397 35.3406 16.397 35.3406 16.397C35.3173 16.4204 35.0598 16.514 35.0131 16.514C34.662 16.6076 34.3812 16.5374 34.0537 16.3736C34.0537 16.4204 34.0537 16.4204 34.077 16.4204C34.5217 16.865 35.3173 16.8884 35.7384 16.514Z" fill="white"/>
<path d="M37.2367 15.7418L37.1198 15.4376C37.0964 15.6716 37.1899 15.9524 37.3537 16.1162C37.8452 16.631 38.711 16.3736 38.8748 15.695C38.8981 15.6014 38.9216 15.4142 38.8514 15.3674C38.8514 15.6482 38.6641 15.929 38.4301 16.046C38.009 16.28 37.4942 16.1396 37.2367 15.7418Z" fill="white"/>
<path d="M35.0598 16.3972C35.5044 16.3271 35.8087 15.9059 35.7852 15.4613C35.7619 15.4145 35.715 15.5783 35.715 15.6017C35.4109 16.3972 34.3578 16.3972 34.077 15.5783C34.077 15.5548 34.0302 15.3677 34.0068 15.4145V15.6251C34.0068 15.6953 34.077 15.8825 34.1238 15.9526C34.2876 16.2803 34.662 16.4674 35.0598 16.3972Z" fill="white"/>
<path d="M36.722 14.455C37.0263 14.1275 36.5116 13.6361 36.1839 13.9871C35.8798 14.3381 36.3946 14.806 36.722 14.455Z" fill="white"/>
<path d="M47.7421 9.86857L47.7188 9.54098L47.3677 9.51758C47.3677 9.86857 47.3912 10.009 47.7421 9.86857Z" fill="white"/>
<path d="M48.8427 9.56441L48.8193 9.89202C49.1703 10.009 49.2171 9.86861 49.1703 9.54102L48.8427 9.56441Z" fill="white"/>
<path d="M49.1692 8.93245L49.1925 8.58145C48.8649 8.55805 48.7245 8.58145 48.8415 8.93245H49.1692Z" fill="white"/>
<path d="M47.439 8.60515L47.4155 8.93274L47.7432 8.95614C47.8368 8.65194 47.7432 8.55834 47.439 8.60515Z" fill="white"/>
<path d="M48.2109 8.60498H47.8833V8.97938H48.2109V8.60498Z" fill="white"/>
<path d="M48.7017 8.60498H48.374V8.97938H48.7017V8.60498Z" fill="white"/>
<path d="M47.9069 9.89202L48.211 9.91542V9.54102H47.8834C47.8834 9.63461 47.8367 9.84521 47.9069 9.89202Z" fill="white"/>
<path d="M48.6783 9.86857L48.7017 9.51758H48.374V9.89196C48.4442 9.91536 48.6315 9.93876 48.6783 9.86857Z" fill="white"/>
<path d="M47.7651 10.032H47.3906V10.3596L47.7416 10.3362C47.7884 10.2894 47.7651 10.1022 47.7651 10.032Z" fill="white"/>
<path d="M48.8427 10.3367C48.8895 10.4069 49.1235 10.3601 49.1938 10.3835V10.0559H48.8193L48.8427 10.3367Z" fill="white"/>
<path d="M47.7651 9.09644H47.3906V9.42403L47.7416 9.40063C47.7884 9.35383 47.7651 9.16663 47.7651 9.09644Z" fill="white"/>
<path d="M49.1938 9.42403V9.09644H48.8193L48.8427 9.40063C48.8895 9.47082 49.1001 9.42403 49.1938 9.42403Z" fill="white"/>
<path d="M48.7017 8.1604H48.374V8.48799H48.7017V8.1604Z" fill="white"/>
<path d="M48.7017 9.09644H48.374V9.42403H48.7017V9.09644Z" fill="white"/>
<path d="M48.2109 9.09644H47.8833V9.42403H48.2109V9.09644Z" fill="white"/>
<path d="M48.2109 10.032H47.8833V10.3596H48.2109V10.032Z" fill="white"/>
<path d="M48.7017 10.032H48.374V10.3596H48.7017V10.032Z" fill="white"/>
<path d="M48.2094 8.16048C48.1392 8.16048 47.9286 8.13708 47.8819 8.20728L47.8584 8.51149H48.186V8.16048H48.2094Z" fill="white"/>
<path d="M47.3906 10.8046L47.5076 10.7812L47.7183 10.4771H47.3906V10.8046Z" fill="white"/>
<path d="M47.7661 8.27739C47.7194 8.2306 47.5321 8.46459 47.5088 8.51139L47.7428 8.48799L47.7661 8.27739Z" fill="white"/>
</svg>
