<svg width="335" height="128" viewBox="0 0 335 128" fill="none" xmlns="http://www.w3.org/2000/svg">
<mask id="path-1-inside-1_126_494" fill="white">
<path d="M0 0H335V128H0V0Z"/>
</mask>
<path d="M0 0H335V128H0V0Z" fill="#07A869"/>
<path d="M335 128V127H0V128V129H335V128Z" fill="white" fill-opacity="0.25" mask="url(#path-1-inside-1_126_494)"/>
<path d="M136.812 46.3886C136.812 39.6591 136.724 32.9263 136.847 26.1985C136.915 22.4712 138.83 19.6264 141.94 17.6195C143.775 16.4355 145.822 15.9967 148.004 16C159.425 16.0199 170.845 16.0083 182.266 16.0083C183.673 16.0083 185.079 15.9951 186.486 16.0149C192.534 16.1043 197.25 20.7573 197.271 26.8112C197.317 39.8032 197.316 52.7968 197.278 65.7887C197.261 71.5479 192.87 76.133 187.122 76.5585C186.793 76.5834 186.462 76.5933 186.13 76.5933C173.413 76.595 160.696 76.6065 147.979 76.5933C142.713 76.5883 138.498 73.4256 137.143 68.5342C136.815 67.3519 136.762 66.1398 136.761 64.926C136.754 58.7463 136.757 52.5683 136.757 46.3886C136.776 46.3886 136.795 46.3886 136.814 46.3886H136.812ZM143.652 52.7769L143.719 52.9508C143.753 53.0534 143.788 53.1561 143.823 53.2588C143.848 53.3233 143.873 53.3863 143.897 53.4508C143.921 53.5154 143.944 53.58 143.967 53.6446C143.975 53.6976 143.998 53.7423 144.038 53.7787C144.076 53.8847 144.113 53.9907 144.151 54.0983C144.184 54.1596 144.219 54.2225 144.252 54.2838C144.277 54.3781 144.303 54.4725 144.328 54.5669L144.422 54.7805C144.5 54.9875 144.578 55.1961 144.656 55.4031C144.682 55.471 144.71 55.5389 144.737 55.6068C144.755 55.6631 144.772 55.7177 144.79 55.774C144.585 55.7724 144.381 55.7707 144.176 55.7691C143.278 54.0006 142.381 52.2305 141.483 50.462C141.318 50.7269 141.283 50.9389 141.283 51.1508C141.283 54.5984 141.238 58.0492 141.306 61.4951C141.42 67.3039 146.125 71.9569 151.93 72.0248C155.874 72.0711 159.82 72.0281 163.765 72.0595C164.422 72.0645 164.622 71.8492 164.617 71.2084C164.594 68.2841 164.588 65.3599 164.622 62.4356C164.631 61.7203 164.362 61.563 163.703 61.5712C161.193 61.6044 158.683 61.5828 156.172 61.5895C155.758 61.5895 155.394 61.601 155.411 61.0149C155.427 60.4469 155.82 60.5214 156.169 60.5198C163.591 60.5181 171.011 60.5181 178.432 60.5247C178.79 60.5247 179.247 60.4022 179.264 61.0314C179.282 61.7203 178.792 61.5861 178.404 61.5861C175.7 61.5911 172.996 61.6044 170.294 61.5712C169.654 61.563 169.424 61.7352 169.431 62.4008C169.461 65.3516 169.457 68.304 169.433 71.2564C169.428 71.8823 169.658 72.0562 170.257 72.0529C174.202 72.0297 178.147 72.0877 182.092 72.0214C188.059 71.9204 192.679 67.2558 192.772 61.2798C192.818 58.3009 192.794 55.322 192.789 52.3414C192.789 52.1245 192.908 51.8546 192.582 51.6244C191.711 53.3548 190.851 55.062 189.994 56.7676C189.871 56.698 189.748 56.6268 189.628 56.5573C189.712 56.2956 189.796 56.034 189.881 55.7724C189.912 55.7028 189.944 55.6316 189.974 55.5621C190.018 55.3766 190.042 55.1845 190.109 55.009C190.563 53.8565 191.058 52.7223 191.436 51.5383C191.643 50.8892 191.5 50.6971 190.815 50.7932C188.93 51.0548 187.043 51.2949 185.172 51.6476C179.591 52.7024 174.258 54.3781 169.58 57.7379C169.477 57.8108 169.38 57.9432 169.161 57.7942C169.26 57.4001 169.565 57.1269 169.835 56.8354C172.552 53.8913 176.084 52.3778 179.795 51.1906C183.751 49.9255 187.836 49.2615 191.934 48.677C192.438 48.6058 192.812 48.5544 192.809 47.8755C192.782 42.33 192.881 36.7829 192.761 31.239C192.628 25.1719 188.002 20.5603 182.054 20.5255C172.039 20.4659 162.024 20.5073 152.008 20.509C150.811 20.509 149.648 20.7308 148.522 21.1299C144.262 22.6417 141.233 26.7599 141.279 31.4741C141.331 36.7431 141.288 42.0137 141.284 47.2827C141.284 48.475 141.284 48.4584 142.478 48.629C146.797 49.2416 151.102 49.9238 155.253 51.3197C158.459 52.3977 161.546 53.7108 164.107 56.0125C164.44 56.3122 164.702 56.6566 164.914 57.0474C165.006 57.2163 165.035 57.3521 164.871 57.4763C164.717 57.5922 164.632 57.4481 164.525 57.3753C163.637 56.7792 162.745 56.1963 161.796 55.6962C156.255 52.7769 150.236 51.6012 144.108 50.8263C143.041 50.6922 143.038 50.7236 143.316 51.7999C143.326 52.1096 143.245 52.4524 143.616 52.6328C143.647 52.6742 143.661 52.7206 143.657 52.7736L143.652 52.7769Z" fill="white"/>
<path d="M126.946 96.8098C127.584 96.2568 128.198 95.7517 128.781 95.2136C130.896 93.2613 133.306 92.0906 136.262 92.3257C139.657 92.5956 141.866 94.7085 142.478 98.2587C142.614 99.0502 142.692 99.845 142.664 100.646C142.649 101.089 142.838 101.306 143.255 101.388C145.141 101.768 147.049 101.584 148.948 101.604C149.355 101.609 149.405 101.259 149.476 100.971C149.776 99.7656 150.049 98.5518 150.119 97.3099C150.147 96.7933 150.321 96.5134 150.829 96.3594C151.751 96.0812 152.664 95.7584 153.566 95.4172C154.162 95.192 154.369 95.2666 154.189 95.9571C153.8 97.4523 153.455 98.9625 152.859 100.39C152.564 101.097 152.799 101.319 153.46 101.425C155.656 101.776 157.865 101.562 160.067 101.609C160.529 101.618 160.57 101.253 160.653 100.94C160.968 99.7374 161.236 98.5237 161.319 97.2818C161.354 96.7618 161.561 96.4919 162.056 96.3429C162.98 96.063 163.894 95.7484 164.798 95.4139C165.392 95.1937 165.548 95.3361 165.387 95.9488C165.008 97.3894 164.616 98.8234 164.134 100.234C164.025 100.554 163.506 101.014 164.164 101.261C164.718 101.468 165.339 101.789 165.826 100.996C166.649 99.6563 167.586 98.3895 168.643 97.2221C170.631 95.0215 172.85 93.1355 175.838 92.4632C180.618 91.3869 184.314 94.1356 184.721 99.0188C184.751 99.3764 184.799 99.7324 184.819 100.09C184.885 101.312 184.882 101.317 186.127 101.476C187.694 101.675 189.268 101.564 190.838 101.595C191.332 101.605 191.519 101.352 191.621 100.931C191.919 99.7258 192.189 98.5121 192.282 97.2735C192.32 96.7668 192.466 96.477 192.984 96.3247C193.91 96.0548 194.82 95.7269 195.725 95.3908C196.39 95.144 196.485 95.3742 196.322 95.9753C195.92 97.4656 195.602 98.9807 194.996 100.408C194.758 100.971 194.837 101.253 195.493 101.37C196.642 101.575 197.794 101.642 198.953 101.569C199.947 101.508 200.507 100.809 200.997 100.055C201.84 98.7638 202.514 97.3629 203.481 96.1491C204.583 94.7648 205.832 93.5494 207.639 93.1951C210.596 92.6155 213.149 94.336 214.103 97.5384C214.741 99.6811 214.648 101.84 214.095 103.995C213.984 104.427 213.712 104.64 213.325 104.771C209.78 105.972 206.39 105.995 203.345 103.443C203.098 103.236 202.876 103.069 202.575 103.392C200.79 105.295 198.513 105.088 196.24 104.828C195.388 104.73 194.564 104.467 193.782 104.122C193.327 103.922 193.054 103.998 192.857 104.433C192.66 104.871 192.315 104.991 191.851 104.985C190.28 104.962 188.707 104.973 187.134 104.963C186.609 104.96 186.091 104.892 185.579 104.76C184.998 104.609 184.392 104.121 183.859 104.914C183.774 105.04 183.388 104.978 183.142 104.978C177.955 104.978 172.769 104.968 167.585 104.978C165.939 104.982 164.334 104.778 162.816 104.12C162.331 103.91 162.039 103.998 161.847 104.49C161.73 104.793 161.519 104.985 161.158 104.978C158.871 104.935 156.578 105.089 154.296 104.841C153.442 104.748 152.621 104.491 151.836 104.147C151.395 103.953 151.046 103.923 150.817 104.425C150.605 104.89 150.243 105 149.748 104.988C148.148 104.952 146.548 104.965 144.949 104.952C144.31 104.945 143.694 104.806 143.084 104.617C142.68 104.493 142.222 104.132 141.95 104.852C141.872 105.059 141.548 104.972 141.334 104.972C134.631 104.975 127.928 104.968 121.225 104.982C120.657 104.982 120.424 104.811 120.457 104.226C120.495 103.539 120.49 102.847 120.464 102.158C120.447 101.686 120.642 101.498 121.096 101.537C121.151 101.542 121.207 101.541 121.262 101.541C122.624 101.522 123.304 100.818 123.303 99.4294C123.303 94.5744 123.318 89.7194 123.287 84.8644C123.282 84.1408 123.477 83.8609 124.214 83.9255C124.843 83.9818 125.484 83.9702 126.115 83.9354C126.751 83.9007 126.971 84.1259 126.964 84.7882C126.933 88.4013 126.946 92.0144 126.943 95.6292C126.943 96.0349 126.943 96.4422 126.943 96.8132L126.946 96.8098ZM133.071 101.554C133.071 101.554 133.071 101.559 133.071 101.561C134.34 101.561 135.61 101.561 136.878 101.561C138.506 101.561 139.168 100.739 138.864 99.0966C138.352 96.3346 136.456 95.1192 133.727 95.8031C133.053 95.972 132.412 96.222 131.82 96.583C130.041 97.661 128.652 99.1363 127.478 100.832C127.359 101.002 127.132 101.185 127.249 101.411C127.369 101.643 127.647 101.547 127.857 101.547C129.596 101.554 131.333 101.551 133.071 101.551V101.554ZM175.344 101.501C177.023 101.501 178.702 101.481 180.381 101.511C180.984 101.522 181.267 101.339 181.179 100.711C181.092 100.085 181.063 99.4476 180.928 98.8317C180.356 96.227 178.424 95.0778 175.862 95.8494C173.125 96.6741 171.352 98.6959 169.751 100.908C169.38 101.42 169.701 101.499 170.141 101.498C171.875 101.494 173.61 101.498 175.344 101.498V101.501ZM209.856 102.165C210.131 102.165 210.407 102.16 210.682 102.165C211.081 102.175 211.306 102.014 211.305 101.587C211.298 100.183 211.056 98.83 210.238 97.661C209.324 96.3545 207.839 96.2916 206.718 97.454C206.06 98.1362 205.628 98.9724 205.1 99.744C204.749 100.254 204.878 100.56 205.387 100.87C206.764 101.71 208.248 102.137 209.854 102.163L209.856 102.165Z" fill="white"/>
<path d="M150.867 107.088C151.011 107.209 151.142 107.306 151.258 107.419C151.849 107.995 152.425 108.586 153.03 109.148C153.339 109.436 153.361 109.663 153.058 109.967C152.476 110.552 151.907 111.151 151.355 111.766C151.059 112.097 150.824 112.059 150.537 111.766C149.941 111.156 149.327 110.565 148.724 109.961C148.524 109.76 148.33 109.557 148.615 109.267C149.249 108.618 149.873 107.957 150.509 107.31C150.599 107.219 150.733 107.169 150.867 107.088Z" fill="white"/>
<path d="M194.367 87.1263C194.514 87.2472 194.65 87.3383 194.764 87.4525C195.367 88.052 195.956 88.6663 196.567 89.2575C196.829 89.5108 196.91 89.7194 196.62 90.0125C196.021 90.6169 195.435 91.2329 194.859 91.8572C194.597 92.1403 194.387 92.1503 194.108 91.8671C193.474 91.2213 192.82 90.5954 192.166 89.9695C191.938 89.7509 191.946 89.5555 192.156 89.3369C192.805 88.6663 193.449 87.9924 194.099 87.3234C194.17 87.2489 194.266 87.1992 194.367 87.1263Z" fill="white"/>
<path d="M176.811 89.2541C176.578 89.2508 174.268 86.9707 174.307 86.7819C174.334 86.6577 174.427 86.5368 174.518 86.4408C175.109 85.8248 175.722 85.2287 176.298 84.5994C176.581 84.2915 176.795 84.3494 177.051 84.6077C177.652 85.2138 178.262 85.8115 178.868 86.4126C179.055 86.5981 179.214 86.8067 178.985 87.0535C178.331 87.7605 177.665 88.4593 177 89.1548C176.949 89.2094 176.859 89.2276 176.809 89.2508L176.811 89.2541Z" fill="white"/>
<path d="M144.79 55.7724C145.126 56.4083 145.356 57.0723 145.485 57.7661C145.393 57.8058 145.302 57.8439 145.209 57.8836C144.864 57.1782 144.52 56.4728 144.174 55.7691C144.379 55.7708 144.583 55.7724 144.788 55.7741L144.79 55.7724Z" fill="white"/>
<path d="M189.994 56.7675C189.869 57.1683 189.737 57.564 189.32 57.9068C189.185 57.3272 189.391 56.9381 189.628 56.5573C189.75 56.6268 189.873 56.698 189.994 56.7675Z" fill="white"/>
<path d="M143.313 51.8033C143.488 52.0533 143.583 52.3332 143.613 52.6362C143.243 52.4557 143.324 52.1129 143.313 51.8033Z" fill="white"/>
<path d="M143.967 53.6447C143.99 53.6894 144.015 53.7341 144.038 53.7788C143.999 53.7423 143.975 53.6976 143.967 53.6447Z" fill="white"/>
<path d="M189.881 55.774C189.912 55.7045 189.944 55.6333 189.974 55.5637C189.942 55.6333 189.911 55.7045 189.881 55.774Z" fill="white"/>
<path d="M160.022 40.3811C160.002 38.1953 160.385 36.1536 162.054 34.5557C163.897 32.7905 166.836 32.2888 169.217 33.3436C171.511 34.3587 173.177 36.8855 173.099 39.2253C173.049 40.7139 172.132 41.6362 170.67 41.7173C169.706 41.772 169.106 41.2537 168.686 40.4903C168.381 39.9373 168.184 39.3263 167.913 38.755C167.606 38.1109 167.131 37.6307 166.364 37.7714C165.568 37.9171 165.152 38.5016 165.046 39.2816C164.793 41.1428 166.8 44.0952 168.635 44.5389C169.077 44.6449 169.436 44.7575 169.481 45.2725C169.506 45.5706 169.406 45.8355 169.13 45.9647C168.679 46.175 168.394 45.8968 168.04 45.6351C166.994 44.8635 165.965 44.0886 165.238 42.9841C164.379 41.6809 163.778 40.3148 164.253 38.707C164.705 37.1803 165.955 36.4749 167.359 36.9368C167.914 37.119 168.322 37.4734 168.562 37.9999C168.802 38.5265 169.009 39.0663 169.241 39.5962C169.658 40.5549 170.213 40.9027 170.999 40.7321C171.913 40.5334 171.988 39.8843 171.986 39.0978C171.978 36.6918 170.726 34.9084 168.429 34.1335C166.051 33.3304 163.516 34.0093 162.19 35.8721C161.15 37.3309 160.94 39.0199 161.021 40.7636C161.034 41.0567 161.221 41.2703 161.36 41.5071C161.539 41.8117 161.481 42.0816 161.264 42.3433C161.062 42.585 160.809 42.6513 160.522 42.5536C160.204 42.4443 160.027 42.2108 160.024 41.868C160.019 41.3729 160.024 40.8762 160.024 40.3811H160.022Z" fill="white"/>
<path d="M166.056 56.0705C164.727 55.1084 163.476 54.0917 162.127 53.2058C158.593 50.8859 154.737 49.4486 150.559 48.7913C148.622 48.4866 148.999 48.7532 148.555 46.8804C148.428 46.3439 148.31 45.8057 148.181 45.2709C148.065 44.7857 148.223 44.6913 148.693 44.8304C153.506 46.2545 158.125 48.0826 162.081 51.28C163.39 52.3381 164.616 53.4857 165.579 54.8832C165.821 55.2343 166.045 55.5969 166.056 56.0705Z" fill="white"/>
<path d="M168.353 55.9446C171.993 50.4836 177.495 47.7265 183.456 45.6451C184.314 45.3454 185.196 45.1119 186.057 44.8238C186.549 44.6599 186.647 44.8056 186.528 45.2758C186.319 46.1038 186.117 46.9367 185.966 47.7762C185.869 48.3276 185.582 48.5545 185.047 48.6472C182.684 49.0628 180.323 49.4768 178.076 50.3726C175.236 51.5036 172.623 53.0121 170.229 54.908C169.668 55.3518 169.073 55.7542 168.495 56.1764C168.447 56.0986 168.399 56.0208 168.353 55.943V55.9446Z" fill="white"/>
<path d="M168.55 53.8615C168.976 51.9606 169.977 50.3975 171.196 48.9684C173.354 46.4366 175.968 44.4893 178.939 43.0123C179.196 42.8848 179.502 42.6182 179.774 42.8268C180.015 43.0123 179.782 43.3401 179.772 43.6051C179.697 45.4464 179.023 46.5492 177.035 47.2082C173.865 48.2564 171.522 50.6756 169.27 53.0866C169.03 53.3449 168.79 53.6032 168.55 53.8615Z" fill="white"/>
<path d="M154.849 43.1646C154.892 42.4145 155.339 42.802 155.618 42.9378C158.156 44.1879 160.471 45.7643 162.451 47.7977C163.725 49.1042 164.866 50.515 165.634 52.1891C165.748 52.4358 165.824 52.7008 165.93 52.9525C165.998 53.1147 166.053 53.3068 165.902 53.4012C165.733 53.5072 165.621 53.3333 165.508 53.2042C163.567 51.0052 161.412 49.0645 158.81 47.6636C157.959 47.2049 157.08 46.8026 156.139 46.5724C155.647 46.4515 155.387 46.2263 155.315 45.7031C155.197 44.8586 155.01 44.024 154.848 43.1646H154.849Z" fill="white"/>
<path d="M162.915 39.8032C163.159 41.8399 163.73 43.7276 165.439 45.0672C165.728 45.2941 165.896 45.5474 165.785 45.915C165.697 46.2048 165.482 46.3786 165.187 46.42C164.849 46.4664 164.548 46.3074 164.447 46.0094C164.169 45.1798 163.531 44.5804 163.137 43.827C162.236 42.1032 161.629 40.3231 162.124 38.3576C162.632 36.3374 164.564 34.8174 166.573 34.7958C168.706 34.7726 170.403 36.1089 171.021 38.2781C171.11 38.5927 171.256 38.8908 171.387 39.1922C171.539 39.5432 171.458 39.8446 171.185 40.0863C170.958 40.2867 170.68 40.3148 170.413 40.1758C170.102 40.0135 170.057 39.7237 170.077 39.3975C170.188 37.6506 169.034 36.1603 167.333 35.8374C165.651 35.5178 163.713 36.6405 163.177 38.2516C163.011 38.75 162.899 39.2617 162.915 39.8032Z" fill="white"/>
<path d="M173.937 34.8902C173.941 35.1105 173.857 35.238 173.685 35.3108C173.476 35.4002 173.311 35.3323 173.163 35.1817C172.799 34.8041 172.441 34.4216 172.072 34.0507C168.785 30.7406 163.639 30.9625 160.67 34.5425C160.405 34.8604 160.196 35.2015 160.153 35.6436C160.115 36.0377 159.848 36.2944 159.438 36.3242C159.097 36.349 158.845 36.157 158.727 35.8539C158.578 35.4681 158.709 35.137 159.077 34.9449C159.424 34.7627 159.539 34.4067 159.752 34.1269C163.163 29.6444 170.13 29.6428 173.524 34.1302C173.706 34.3719 173.89 34.6137 173.937 34.8919V34.8902Z" fill="white"/>
<path d="M155.97 33.7378C154.252 33.7344 152.917 32.3568 152.93 30.5982C152.942 28.9837 154.333 27.6276 155.979 27.6243C157.714 27.621 159.075 29.002 159.047 30.7373C159.02 32.466 157.712 33.7427 155.97 33.7394V33.7378ZM158.39 30.7224C158.055 31.1331 158.06 31.8915 157.202 31.749C156.085 31.5636 154.96 31.7507 153.824 31.749C154.213 32.9777 155.684 33.5672 156.917 33.0307C158.005 32.5571 158.61 31.6033 158.373 30.7323C158.615 29.5136 157.687 28.3512 156.32 28.1608C155.096 27.9902 153.641 29.0251 153.554 30.1213C153.53 30.4492 153.634 30.7158 153.884 30.9261C154.094 31.1016 154.353 31.1364 154.583 31.0337C154.844 30.9161 154.637 30.7025 154.616 30.5303C154.56 30.0882 154.636 29.7239 155.108 29.4606C155.255 29.974 154.733 30.2654 154.983 30.6429C155.386 30.6976 155.315 30.2902 155.457 30.171C156.139 30.3896 154.909 31.4162 155.995 31.3748C156.78 31.345 155.871 30.6032 156.358 30.3283C156.523 30.4144 156.628 30.8681 156.868 30.6727C157.237 30.3714 156.654 30.0054 156.831 29.555C157.262 29.7951 157.272 30.1727 157.235 30.5353C157.181 31.0917 157.446 31.1562 157.875 30.9907C158.053 30.9211 158.217 30.8151 158.388 30.7257L158.39 30.7224Z" fill="white"/>
<path d="M163.962 22.8123C164.684 21.6432 166.086 21.1134 167.378 21.524C168.76 21.9628 169.578 23.1865 169.497 24.6917C169.424 26.0528 168.401 27.2351 167.083 27.4669C165.801 27.6921 164.248 27.1325 163.811 25.8607C164.243 25.3623 164.799 25.2862 165.43 25.3011C166.941 25.3342 166.941 25.311 167.085 23.829C167.09 23.7777 167.131 23.7313 167.156 23.6816C167.227 23.2296 167.621 23.309 167.914 23.208C168.086 23.1484 168.35 23.2759 168.426 23.0524C168.514 22.7957 168.25 22.6715 168.098 22.5358C167.091 21.6333 165.795 21.7459 164.482 22.8355C164.308 22.8272 164.135 22.8206 163.962 22.8123ZM165.452 25.5246C165.45 25.5378 165.449 25.5494 165.447 25.5627C165.338 25.5627 165.227 25.5528 165.119 25.5643C164.886 25.5925 164.561 25.4666 164.453 25.7349C164.329 26.0445 164.639 26.2217 164.841 26.389C165.819 27.1921 167.292 27.1788 168.163 26.3658C168.404 26.1406 168.739 25.8276 168.641 25.5643C168.51 25.2133 168.038 25.2911 167.687 25.2862C167.494 25.2845 167.288 25.2994 167.186 25.4981C167.02 25.8243 166.796 25.778 166.498 25.6869C166.164 25.5842 165.801 25.5726 165.452 25.5229V25.5246Z" fill="white"/>
<path d="M171.529 30.3449C171.408 30.7539 171.117 30.8333 170.756 30.7091C170.236 30.5303 169.734 30.2952 169.209 30.1379C166.886 29.4407 164.64 29.7322 162.461 30.724C162.311 30.7919 162.165 30.8747 162.009 30.9244C161.764 31.0022 161.493 31.0453 161.36 30.7605C161.196 30.4094 161.413 30.1842 161.705 30.0319C162.586 29.5699 163.508 29.199 164.483 29.0069C166.705 28.5731 168.863 28.8099 170.939 29.7272C171.216 29.8497 171.507 29.9657 171.531 30.3432L171.529 30.3449Z" fill="white"/>
<path d="M171.524 44.0322C168.762 44.0256 166.801 42.6777 166.18 40.4688C166.106 40.2055 166.063 39.929 166.04 39.6574C166.018 39.3875 166.119 39.1491 166.417 39.1027C166.717 39.0564 166.876 39.2633 166.954 39.5167C167.058 39.8595 167.103 40.2204 167.229 40.5549C167.757 41.9624 169.408 43.0685 170.92 43.0685C171.213 43.0685 171.449 42.9841 171.675 42.8003C171.968 42.5618 172.284 42.5552 172.574 42.8152C172.799 43.0172 172.877 43.2772 172.782 43.5669C172.663 43.9329 172.387 44.077 172.014 44.0604C171.794 44.0505 171.574 44.0372 171.522 44.0339L171.524 44.0322Z" fill="white"/>
<path d="M163.962 22.8123C164.136 22.8205 164.308 22.8272 164.482 22.8354C164.495 22.9398 164.508 23.0441 164.521 23.1484L164.485 23.1799L164.52 23.1467C165.444 23.0987 166.348 23.1517 167.156 23.6816C167.131 23.7313 167.09 23.7776 167.085 23.829C166.941 25.311 166.941 25.3358 165.43 25.301C164.8 25.2878 164.245 25.364 163.811 25.8607L163.814 25.8442C163.775 25.7779 163.733 25.7133 163.693 25.6471C163.303 24.6552 163.337 23.7048 163.963 22.8106L163.962 22.8123Z" fill="white"/>
<path d="M163.692 25.6488C163.731 25.7134 163.773 25.7796 163.813 25.8459C163.773 25.7813 163.731 25.715 163.692 25.6488Z" fill="white"/>
<path d="M164.518 23.1468L164.483 23.1799L164.521 23.1484L164.518 23.1468Z" fill="white"/>
<path d="M155.952 28.9291C156.167 28.9672 156.26 29.0831 156.253 29.2685C156.248 29.4523 156.154 29.5732 155.957 29.5699C155.717 29.5649 155.624 29.4076 155.641 29.1957C155.656 29.0036 155.795 28.9307 155.95 28.9307L155.952 28.9291Z" fill="white"/>
<rect x="174.271" y="27.6243" width="5.96113" height="5.96113" rx="2.98057" stroke="white" stroke-width="0.5"/>
<path d="M178.523 30.544C178.523 30.9625 178.523 31.3812 178.523 31.7997C178.523 31.9402 178.43 32.0084 178.299 31.963C178.285 31.958 178.27 31.939 178.266 31.9237C178.26 31.9007 178.263 31.8751 178.263 31.8507C178.263 31.0137 178.263 30.1765 178.263 29.3394C178.263 29.2002 178.359 29.1291 178.491 29.1764C178.508 29.1825 178.521 29.2228 178.521 29.2475C178.524 29.4242 178.523 29.6009 178.523 29.7775C178.523 30.0331 178.523 30.2885 178.523 30.544Z" fill="white"/>
<path d="M176.093 31.179C176.094 30.801 176.093 30.423 176.094 30.0451C176.094 29.9259 176.238 29.8466 176.341 29.911C176.357 29.9211 176.363 29.958 176.363 29.9825C176.365 30.1946 176.364 30.4066 176.364 30.6188C176.364 31.1572 176.364 31.6956 176.364 32.234C176.364 32.3894 176.325 32.4247 176.171 32.4263C176.109 32.4269 176.092 32.4041 176.092 32.3454C176.095 32.1524 176.093 31.9593 176.093 31.7662C176.093 31.5706 176.093 31.3748 176.093 31.179Z" fill="white"/>
<path d="M178.084 29.453C178.084 29.4912 178.084 29.5231 178.084 29.555C178.084 30.3086 178.084 31.0621 178.084 31.8156C178.084 31.942 177.97 32.0149 177.854 31.9613C177.843 31.956 177.832 31.9386 177.829 31.9251C177.825 31.9014 177.827 31.8764 177.827 31.8519C177.827 31.1119 177.827 30.3721 177.827 29.6321C177.827 29.4568 177.841 29.4438 178.019 29.4479C178.036 29.4483 178.052 29.4504 178.084 29.453Z" fill="white"/>
<path d="M176.791 30.9086C176.791 31.2105 176.791 31.5124 176.791 31.8144C176.791 31.9386 176.663 32.018 176.551 31.9597C176.533 31.9508 176.526 31.9098 176.525 31.8837C176.524 31.6117 176.524 31.3397 176.524 31.0677C176.524 30.7249 176.522 30.3822 176.527 30.0395C176.527 29.9979 176.553 29.931 176.582 29.9207C176.64 29.9006 176.709 29.9096 176.773 29.914C176.781 29.9145 176.79 29.9612 176.79 29.9866C176.791 30.2938 176.791 30.6012 176.791 30.9086Z" fill="white"/>
<path d="M177.391 30.9529C177.391 30.6538 177.39 30.3547 177.391 30.0557C177.391 29.9244 177.516 29.8472 177.632 29.9106C177.649 29.9201 177.655 29.9615 177.655 29.9881C177.657 30.3063 177.656 30.6244 177.656 30.9424C177.656 31.228 177.656 31.5135 177.656 31.7989C177.656 31.9394 177.556 32.0119 177.424 31.9616C177.406 31.9546 177.392 31.91 177.392 31.8827C177.39 31.5729 177.391 31.2629 177.391 30.9529Z" fill="white"/>
<path d="M176.963 30.9524C176.963 30.648 176.962 30.3436 176.963 30.0391C176.963 29.9244 177.101 29.848 177.199 29.9117C177.217 29.9231 177.221 29.9641 177.222 29.9913C177.223 30.2089 177.223 30.4263 177.223 30.6438C177.223 31.0298 177.223 31.4158 177.223 31.8018C177.222 31.9388 177.123 32.0114 176.996 31.9615C176.977 31.9543 176.964 31.9096 176.964 31.8821C176.962 31.5722 176.963 31.2624 176.963 30.9524Z" fill="white"/>
<path d="M176.524 29.5828C176.524 29.5016 176.574 29.4496 176.653 29.4481C176.73 29.4467 176.794 29.5075 176.795 29.5841C176.796 29.6553 176.726 29.7215 176.652 29.7196C176.574 29.7175 176.523 29.6634 176.524 29.5828Z" fill="white"/>
<path d="M176.96 29.5871C176.958 29.5008 177.009 29.4476 177.091 29.4482C177.164 29.4488 177.226 29.5072 177.229 29.5797C177.233 29.65 177.164 29.7199 177.091 29.72C177.013 29.7202 176.961 29.6673 176.96 29.5871Z" fill="white"/>
<path d="M177.658 29.5813C177.659 29.6565 177.6 29.7184 177.527 29.7197C177.451 29.7211 177.392 29.6641 177.389 29.5886C177.387 29.5048 177.442 29.448 177.524 29.4481C177.602 29.4482 177.657 29.5025 177.658 29.5813Z" fill="white"/>
<path d="M177.946 32.1065C178.028 32.1051 178.08 32.1537 178.082 32.2324C178.084 32.3123 178.025 32.3739 177.948 32.3731C177.877 32.3723 177.813 32.3088 177.812 32.2385C177.812 32.1637 177.869 32.1078 177.946 32.1065Z" fill="white"/>
<path d="M178.515 29.0404H178.28C178.255 28.9095 178.359 28.7944 178.515 28.7834V29.0404Z" fill="white"/>
</svg>
