<svg width="208" height="80" viewBox="0 0 208 80" fill="none" xmlns="http://www.w3.org/2000/svg">
<rect width="207.581" height="80.0001" fill="#07A869"/>
<path d="M52.4564 31.8782C53.2411 31.8782 53.8688 32.5059 53.8688 33.2906C53.8688 34.0753 53.2411 34.7031 52.4564 34.7031C51.6717 34.7031 51.0439 34.0753 51.0439 33.2906C51.0636 32.5059 51.6913 31.8782 52.4564 31.8782Z" fill="white"/>
<path d="M52.4564 19.7351C53.3 19.7351 53.9866 20.4217 53.9866 21.2653C53.9866 22.1088 53.3 22.7954 52.4564 22.7954C51.6129 22.7954 50.9263 22.1088 50.9263 21.2653C50.9263 20.4217 51.6129 19.7351 52.4564 19.7351Z" fill="white"/>
<path d="M59.4799 25.5027C60.3234 25.5027 61.01 26.1893 61.01 27.0328C61.01 27.8764 60.3234 28.563 59.4799 28.563C58.6363 28.563 57.9497 27.8764 57.9497 27.0328C57.9497 26.1893 58.6363 25.5027 59.4799 25.5027Z" fill="white"/>
<path d="M45.7474 25.7573C46.5909 25.7573 47.2775 26.4439 47.2775 27.2875C47.2775 28.131 46.5909 28.8176 45.7474 28.8176C44.9038 28.8176 44.2172 28.131 44.2172 27.2875C44.1976 26.4439 44.8842 25.7573 45.7474 25.7573Z" fill="white"/>
<path d="M31.5838 27.896C32.3685 27.896 32.9963 28.5238 32.9963 29.3084C32.9963 30.0931 32.3685 30.7209 31.5838 30.7209C30.7991 30.7209 30.1714 30.0931 30.1714 29.3084C30.1714 28.5238 30.7991 27.896 31.5838 27.896Z" fill="white"/>
<path d="M73.4271 27.719C74.2118 27.719 74.8395 28.3468 74.8395 29.1314C74.8395 29.9161 74.2118 30.5439 73.4271 30.5439C72.6424 30.5439 72.0146 29.9161 72.0146 29.1314C72.0146 28.3468 72.662 27.719 73.4271 27.719Z" fill="white"/>
<path d="M59.8324 14.2424C60.7544 14.2424 61.4803 14.9879 61.4803 15.8903C61.4803 16.8123 60.7348 17.5381 59.8324 17.5381C58.9104 17.5381 58.1846 16.7927 58.1846 15.8903C58.1846 14.9683 58.9104 14.2424 59.8324 14.2424Z" fill="white"/>
<path d="M45.3549 14.4187C46.2769 14.4187 47.0027 15.1642 47.0027 16.0666C47.0027 16.9886 46.2573 17.7144 45.3549 17.7144C44.4329 17.7144 43.707 16.969 43.707 16.0666C43.707 15.1642 44.4525 14.4187 45.3549 14.4187Z" fill="white"/>
<path d="M38.1557 20.5786C39.0777 20.5786 39.8035 21.3241 39.8035 22.2265C39.8035 23.1485 39.0581 23.8743 38.1557 23.8743C37.2337 23.8743 36.5078 23.1289 36.5078 22.2265C36.5078 21.3241 37.2533 20.5786 38.1557 20.5786Z" fill="white"/>
<path d="M67.0322 20.304C68.013 20.304 68.7977 21.0886 68.7977 22.0695C68.7977 23.0504 68.013 23.8351 67.0322 23.8351C66.0513 23.8351 65.2666 23.0504 65.2666 22.0695C65.2666 21.0886 66.0709 20.304 67.0322 20.304Z" fill="white"/>
<path d="M67.5617 9.39673C68.6407 9.39673 69.5038 10.2599 69.5038 11.3388C69.5038 12.4178 68.6407 13.281 67.5617 13.281C66.4828 13.281 65.6196 12.4178 65.6196 11.3388C65.6196 10.2599 66.4828 9.39673 67.5617 9.39673Z" fill="white"/>
<path d="M75.7616 5.6499C77.0955 5.6499 78.1745 6.72886 78.1745 8.06284C78.1745 9.39682 77.0955 10.4758 75.7616 10.4758C74.4276 10.4758 73.3486 9.39682 73.3486 8.06284C73.3486 6.74848 74.4276 5.6499 75.7616 5.6499Z" fill="white"/>
<path d="M84.2755 3.00146C85.8252 3.00146 87.0808 4.25698 87.0808 5.80675C87.0808 7.35652 85.8252 8.61203 84.2755 8.61203C82.7257 8.61203 81.4702 7.35652 81.4702 5.80675C81.4702 4.25698 82.7257 3.00146 84.2755 3.00146Z" fill="white"/>
<path d="M92.9856 1.19653C94.6138 1.19653 95.9085 2.51089 95.9085 4.11952C95.9085 5.74776 94.5942 7.0425 92.9856 7.0425C91.3573 7.0425 90.043 5.72814 90.043 4.11952C90.043 2.51089 91.3573 1.19653 92.9856 1.19653Z" fill="white"/>
<path d="M101.833 0C103.638 0 105.109 1.4713 105.109 3.27609C105.109 5.08089 103.638 6.55219 101.833 6.55219C100.028 6.55219 98.5571 5.08089 98.5571 3.27609C98.5571 1.45168 100.028 0 101.833 0Z" fill="white"/>
<path d="M75.2125 16.2627C76.2914 16.2627 77.1546 17.1259 77.1546 18.2048C77.1546 19.2838 76.2914 20.1469 75.2125 20.1469C74.1335 20.1469 73.2703 19.2838 73.2703 18.2048C73.2507 17.1455 74.1335 16.2627 75.2125 16.2627Z" fill="white"/>
<path d="M83.7464 13.1243C85.0804 13.1243 86.1593 14.2032 86.1593 15.5372C86.1593 16.8712 85.0804 17.9501 83.7464 17.9501C82.4125 17.9501 81.3335 16.8712 81.3335 15.5372C81.3335 14.2228 82.4125 13.1243 83.7464 13.1243Z" fill="white"/>
<path d="M92.7306 11.123C94.2803 11.123 95.5358 12.3786 95.5358 13.9283C95.5358 15.4781 94.2803 16.7336 92.7306 16.7336C91.1808 16.7336 89.9253 15.4781 89.9253 13.9283C89.9253 12.3786 91.1808 11.123 92.7306 11.123Z" fill="white"/>
<path d="M102.186 10.8091C103.814 10.8091 105.109 12.1234 105.109 13.7321C105.109 15.3603 103.795 16.6747 102.186 16.6747C100.558 16.6747 99.2437 15.3603 99.2437 13.7321C99.2437 12.1234 100.558 10.8091 102.186 10.8091Z" fill="white"/>
<path d="M82.5886 23.4819C83.6675 23.4819 84.5307 24.3451 84.5307 25.4241C84.5307 26.503 83.6675 27.3662 82.5886 27.3662C81.5096 27.3662 80.6465 26.503 80.6465 25.4241C80.6465 24.3451 81.5096 23.4819 82.5886 23.4819Z" fill="white"/>
<path d="M92.7308 21.0691C94.0648 21.0691 95.1437 22.148 95.1437 23.482C95.1437 24.816 94.0648 25.895 92.7308 25.895C91.3968 25.895 90.3179 24.816 90.3179 23.482C90.3179 22.1677 91.3968 21.0691 92.7308 21.0691Z" fill="white"/>
<path d="M102.441 20.814C103.893 20.814 105.07 21.991 105.07 23.4427C105.07 24.8944 103.893 26.0714 102.441 26.0714C100.99 26.0714 99.8127 24.8944 99.8127 23.4427C99.7931 21.991 100.99 20.814 102.441 20.814Z" fill="white"/>
<path d="M37.5866 9.65186C38.6656 9.65186 39.5287 10.515 39.5287 11.594C39.5287 12.6729 38.6656 13.5361 37.5866 13.5361C36.5077 13.5361 35.6445 12.6729 35.6445 11.594C35.6445 10.5346 36.5077 9.65186 37.5866 9.65186Z" fill="white"/>
<path d="M29.504 6.00269C30.838 6.00269 31.9169 7.08164 31.9169 8.41562C31.9169 9.7496 30.838 10.8285 29.504 10.8285C28.17 10.8285 27.0911 9.7496 27.0911 8.41562C27.0715 7.08164 28.17 6.00269 29.504 6.00269Z" fill="white"/>
<path d="M20.9317 3.33496C22.4815 3.33496 23.737 4.59047 23.737 6.14024C23.737 7.69001 22.4815 8.94552 20.9317 8.94552C19.382 8.94552 18.1265 7.69001 18.1265 6.14024C18.1265 4.59047 19.382 3.33496 20.9317 3.33496Z" fill="white"/>
<path d="M12.2409 1.62817C13.8692 1.62817 15.1639 2.94254 15.1639 4.57078C15.1639 6.19902 13.8495 7.49376 12.2409 7.49376C10.6127 7.49376 9.29834 6.1794 9.29834 4.57078C9.29834 2.94254 10.6127 1.62817 12.2409 1.62817Z" fill="white"/>
<path d="M3.41328 0C5.21807 0 6.68937 1.4713 6.68937 3.27609C6.68937 5.08089 5.21807 6.55219 3.41328 6.55219C1.6085 6.55219 0.137207 5.08089 0.137207 3.27609C0.137207 1.45168 1.6085 0 3.41328 0Z" fill="white"/>
<path d="M29.9753 16.5178C31.0543 16.5178 31.9174 17.381 31.9174 18.4599C31.9174 19.5389 31.0543 20.4021 29.9753 20.4021C28.8964 20.4021 28.0332 19.5389 28.0332 18.4599C28.0332 17.4006 28.8964 16.5178 29.9753 16.5178Z" fill="white"/>
<path d="M21.3631 13.3989C22.6971 13.3989 23.776 14.4779 23.776 15.8119C23.776 17.1458 22.6971 18.2248 21.3631 18.2248C20.0291 18.2248 18.9502 17.1458 18.9502 15.8119C18.9502 14.4779 20.0291 13.3989 21.3631 13.3989Z" fill="white"/>
<path d="M12.2413 11.3782C13.7911 11.3782 15.0466 12.6337 15.0466 14.1835C15.0466 15.7332 13.7911 16.9887 12.2413 16.9887C10.6915 16.9887 9.43604 15.7332 9.43604 14.1835C9.43604 12.6337 10.6915 11.3782 12.2413 11.3782Z" fill="white"/>
<path d="M3.06018 11.0642C4.68841 11.0642 6.00276 12.3786 6.00276 13.9872C6.00276 15.6154 4.68841 16.9298 3.06018 16.9298C1.43194 16.9298 0.137207 15.6154 0.137207 13.9872C0.137207 12.3786 1.43194 11.0642 3.06018 11.0642Z" fill="white"/>
<path d="M22.6384 23.7371C23.7173 23.7371 24.5805 24.6002 24.5805 25.6792C24.5805 26.7581 23.7173 27.6213 22.6384 27.6213C21.5594 27.6213 20.6963 26.7581 20.6963 25.6792C20.6963 24.6198 21.5594 23.7371 22.6384 23.7371Z" fill="white"/>
<path d="M12.7513 21.3438C14.0853 21.3438 15.1642 22.4227 15.1642 23.7567C15.1642 25.0907 14.0853 26.1696 12.7513 26.1696C11.4173 26.1696 10.3384 25.0907 10.3384 23.7567C10.3384 22.4227 11.4173 21.3438 12.7513 21.3438Z" fill="white"/>
<path d="M2.62871 21.0886C4.08039 21.0886 5.25742 22.2657 5.25742 23.7173C5.25742 25.169 4.08039 26.3461 2.62871 26.3461C1.17703 26.3461 0 25.169 0 23.7173C0 22.2657 1.17703 21.0886 2.62871 21.0886Z" fill="white"/>
<path d="M3.93089 75.7424C4.02898 75.8601 4.08783 75.8601 4.14668 75.7424L7.14812 70.0337C7.18735 69.9552 7.24621 69.916 7.32468 69.916H7.87396C7.97205 69.916 8.07013 70.0141 8.07013 70.1122V76.6644C8.07013 76.7821 7.97205 76.8606 7.87396 76.8606H7.32468C7.20697 76.8606 7.1285 76.7625 7.1285 76.6644V71.5639L4.49979 76.4682C4.20553 76.9979 3.55816 76.9979 3.28352 76.4682L1.12562 72.2112V76.684C1.12562 76.8017 1.04715 76.8802 0.929451 76.8802H0.399786C0.3017 76.8802 0.203613 76.7821 0.203613 76.684V70.1318C0.203613 70.0141 0.3017 69.9356 0.399786 69.9356H0.94907C1.02754 69.9356 1.08639 69.9749 1.12562 70.0533L3.93089 75.7424Z" fill="white"/>
<path d="M10.4828 71.7012H11.0321C11.1498 71.7012 11.2282 71.7993 11.2282 71.8973V76.6644C11.2282 76.7821 11.1498 76.8605 11.0321 76.8605H10.4828C10.3651 76.8605 10.2866 76.7625 10.2866 76.6644V71.8973C10.2866 71.7796 10.3847 71.7012 10.4828 71.7012Z" fill="white"/>
<path d="M10.7576 69.916C11.0322 69.916 11.2677 70.1514 11.2677 70.4261C11.2677 70.7007 11.0322 70.9361 10.7576 70.9361C10.483 70.9361 10.2476 70.7007 10.2476 70.4261C10.2476 70.1514 10.483 69.916 10.7576 69.916Z" fill="white"/>
<path d="M20.4486 71.7012H20.9979C21.1156 71.7012 21.1941 71.7993 21.1941 71.8973V76.6644C21.1941 76.7821 21.096 76.8605 20.9979 76.8605H20.4486C20.3505 76.8605 20.2524 76.7625 20.2524 76.6644V71.8973C20.2524 71.7796 20.3505 71.7012 20.4486 71.7012Z" fill="white"/>
<path d="M20.7229 69.916C20.9976 69.916 21.233 70.1514 21.233 70.4261C21.233 70.7007 20.9976 70.9361 20.7229 70.9361C20.4483 70.9361 20.2129 70.7007 20.2129 70.4261C20.2129 70.1514 20.4483 69.916 20.7229 69.916Z" fill="white"/>
<path d="M91.6005 71.7012H92.1498C92.2478 71.7012 92.3459 71.7993 92.3459 71.8973V76.6644C92.3459 76.7821 92.2478 76.8605 92.1498 76.8605H91.6005C91.4828 76.8605 91.4043 76.7625 91.4043 76.6644V71.8973C91.4043 71.7796 91.5024 71.7012 91.6005 71.7012Z" fill="white"/>
<path d="M91.8753 69.916C92.1499 69.916 92.3853 70.1514 92.3853 70.4261C92.3853 70.7007 92.1499 70.9361 91.8753 70.9361C91.6006 70.9361 91.3652 70.7007 91.3652 70.4261C91.3652 70.1514 91.6006 69.916 91.8753 69.916Z" fill="white"/>
<path d="M17.2507 73.761C17.2507 72.5447 16.2306 72.1328 14.1316 72.1524V76.6448C14.1316 76.7428 14.0335 76.8409 13.9354 76.8409H13.3861C13.288 76.8409 13.1899 76.7428 13.1899 76.6448V71.8777C13.1899 71.76 13.288 71.6816 13.3861 71.6816C14.21 71.6816 15.034 71.662 15.8579 71.6816C17.3292 71.7404 18.1923 72.6624 18.1923 74.0945V76.6644C18.1923 76.7625 18.0943 76.8606 17.9962 76.8606H17.4469C17.3488 76.8606 17.2507 76.7625 17.2507 76.6644V73.761Z" fill="white"/>
<path d="M104.332 73.761C104.332 72.5447 103.312 72.1328 101.213 72.1524V76.6448C101.213 76.7428 101.115 76.8409 101.017 76.8409H100.468C100.37 76.8409 100.271 76.7428 100.271 76.6448V71.8777C100.271 71.76 100.37 71.6816 100.468 71.6816C101.292 71.6816 102.116 71.662 102.939 71.6816C104.411 71.7404 105.274 72.6624 105.274 74.0945V76.6644C105.274 76.7625 105.176 76.8606 105.078 76.8606H104.528C104.43 76.8606 104.332 76.7625 104.332 76.6644V73.761Z" fill="white"/>
<path d="M69.6682 74.7614C69.6682 75.9777 70.6883 76.3896 72.7873 76.37V71.8777C72.7873 71.7796 72.8854 71.6815 72.9835 71.6815H73.5328C73.6309 71.6815 73.729 71.7796 73.729 71.8777V76.6447C73.729 76.7624 73.6309 76.8408 73.5328 76.8408C72.7089 76.8408 71.8849 76.8605 71.061 76.8408C69.5897 76.782 68.7266 75.86 68.7266 74.4279V71.858C68.7266 71.76 68.8246 71.6619 68.9227 71.6619H69.472C69.5701 71.6619 69.6682 71.76 69.6682 71.858V74.7614Z" fill="white"/>
<path d="M27.8638 74.4476V70.1122C27.8638 69.9945 27.9619 69.916 28.0599 69.916H28.6092C28.7269 69.916 28.8054 70.0141 28.8054 70.1122V71.6031C28.8054 71.662 28.8446 71.7012 28.9035 71.7012H30.2767C30.3355 71.7012 30.3748 71.7404 30.3748 71.7993V72.0739C30.3748 72.1328 30.3355 72.172 30.2767 72.172H28.9035C28.8446 72.172 28.8054 72.2112 28.8054 72.2701V74.9184C28.8054 75.7031 29.2566 76.1543 30.159 76.3505C30.7083 76.4682 30.8652 76.8802 30.1982 76.8606C28.7465 76.8213 27.8638 75.8797 27.8638 74.4476Z" fill="white"/>
<path d="M87.3237 74.4476V70.1122C87.3237 69.9945 87.4218 69.916 87.5199 69.916H88.0692C88.1673 69.916 88.2654 70.0141 88.2654 70.1122V71.6031C88.2654 71.662 88.3046 71.7012 88.3635 71.7012H89.7367C89.7955 71.7012 89.8347 71.7404 89.8347 71.7993V72.0739C89.8347 72.1328 89.7955 72.172 89.7367 72.172H88.3635C88.3046 72.172 88.2654 72.2112 88.2654 72.2701V74.9184C88.2654 75.7031 88.7166 76.1543 89.619 76.3505C90.1682 76.4682 90.3252 76.8802 89.6582 76.8606C88.1869 76.8213 87.3237 75.8797 87.3237 74.4476Z" fill="white"/>
<path d="M50.1099 72.3288V76.6643C50.1099 76.7623 50.2079 76.8604 50.306 76.8604H50.8553C50.9534 76.8604 51.0515 76.7623 51.0515 76.6643V73.6824C51.0515 73.6236 51.0907 73.5843 51.1496 73.5843H52.5228C52.5816 73.5843 52.6209 73.5451 52.6209 73.4862V73.2116C52.6209 73.1527 52.5816 73.1135 52.5228 73.1135H51.1496C51.0907 73.1135 51.0515 73.0743 51.0515 73.0154V71.8776C51.0515 71.0929 51.5027 70.6417 52.4051 70.4456C52.9544 70.3278 53.1113 69.9159 52.4443 69.9355C50.973 69.9551 50.1099 70.8967 50.1099 72.3288Z" fill="white"/>
<path d="M31.8657 74.0947V76.6646C31.8657 76.7626 31.9638 76.8607 32.0619 76.8607H32.6112C32.7093 76.8607 32.8074 76.7626 32.8074 76.6646C32.8074 73.3492 32.8074 78.1162 32.8074 73.6435C32.8074 72.8588 33.2585 72.4076 34.1609 72.2114C34.7102 72.0937 34.8672 71.6817 34.2002 71.7014C32.7289 71.7406 31.8657 72.6626 31.8657 74.0947Z" fill="white"/>
<path d="M39.4575 76.9585C39.4575 76.8997 39.4182 76.8605 39.3594 76.8605C38.9866 76.8605 38.7512 76.8605 38.2412 76.8408C36.7699 76.782 35.9067 75.86 35.9067 74.4279V71.858C35.9067 71.76 36.0048 71.6619 36.1029 71.6619H36.6522C36.7503 71.6619 36.8484 71.76 36.8484 71.858V74.7418C36.8484 75.6246 37.4173 76.4093 38.1823 76.4093C38.6532 76.4093 39.4771 76.0365 39.4771 75.0557C39.4771 73.9963 39.4771 72.9174 39.4771 71.858C39.4771 71.76 39.5752 71.6619 39.6733 71.6619H40.2225C40.3206 71.6619 40.4187 71.76 40.4187 71.858V77.5863C40.4187 79.0184 39.5555 79.96 38.0843 79.9992C37.4173 80.0189 37.5742 79.6069 38.1235 79.4892C39.0259 79.293 39.4771 78.783 39.4967 77.9983L39.4575 76.9585Z" fill="white"/>
<path d="M56.4071 69.916C57.898 69.916 59.4085 69.916 60.8995 69.916C60.9779 69.916 61.0368 69.9749 61.0368 70.0533V70.4457C61.0368 70.5242 60.9779 70.583 60.8995 70.583H57.1526V72.8979H59.8205C59.899 72.8979 59.9578 72.9567 59.9578 73.0352V73.4275C59.9578 73.506 59.899 73.5648 59.8205 73.5648H57.1526V76.1936H60.8995C60.9779 76.1936 61.0368 76.2524 61.0368 76.3309V76.7232C61.0368 76.8017 60.9779 76.8606 60.8995 76.8606C59.4085 76.8606 57.898 76.8606 56.4071 76.8606C56.2894 76.8606 56.2109 76.7625 56.2109 76.6644V70.1122C56.2109 70.0141 56.309 69.916 56.4071 69.916Z" fill="white"/>
<path d="M46.9903 71.7012H45.8133C44.7343 71.7012 43.8516 72.584 43.8516 73.6629V74.8988C43.8516 75.9778 44.7343 76.8605 45.8133 76.8605H46.9903C48.0693 76.8605 48.952 75.9778 48.952 74.8988V73.6629C48.952 72.584 48.0693 71.7012 46.9903 71.7012ZM47.9319 75.1538C47.9319 75.8012 47.4023 76.3505 46.7353 76.3505H46.0291C45.3817 76.3505 44.8324 75.8208 44.8324 75.1538V73.4079C44.852 72.7409 45.3817 72.2112 46.0291 72.2112H46.7353C47.3827 72.2112 47.9319 72.7409 47.9319 73.4079V75.1538Z" fill="white"/>
<path d="M97.0538 71.7012H95.8768C94.7978 71.7012 93.915 72.584 93.915 73.6629V74.8988C93.915 75.9778 94.7978 76.8605 95.8768 76.8605H97.0538C98.1327 76.8605 99.0155 75.9778 99.0155 74.8988V73.6629C99.0155 72.584 98.1327 71.7012 97.0538 71.7012ZM98.015 75.1538C98.015 75.8012 97.4854 76.3505 96.8184 76.3505H96.1122C95.4648 76.3505 94.9155 75.8208 94.9155 75.1538V73.4079C94.9351 72.7409 95.4648 72.2112 96.1122 72.2112H96.8184C97.4658 72.2112 98.015 72.7409 98.015 73.4079V75.1538Z" fill="white"/>
<path d="M66.7646 69.916H66.2153C66.1172 69.916 66.0192 70.0141 66.0192 70.1122V71.6031C66.0192 71.662 65.9799 71.7012 65.9211 71.7012H63.7239C62.645 71.7012 61.7622 72.584 61.7622 73.6629V74.8988C61.7622 75.9778 62.645 76.8606 63.7239 76.8606H66.2153H66.5684H66.7646C66.8823 76.8606 66.9608 76.7625 66.9608 76.6644V70.1122C66.9608 69.9945 66.8627 69.916 66.7646 69.916ZM66.0192 76.3113C66.0192 76.3701 65.9799 76.4094 65.9211 76.4094H64.1555C63.3708 76.4094 62.7235 75.762 62.7235 74.9773V73.6041C62.7235 72.8194 63.3708 72.172 64.1555 72.172H65.9211C65.9799 72.172 66.0192 72.2112 66.0192 72.2701V76.3113Z" fill="white"/>
<path d="M85.4799 71.7012C84.5578 71.7012 83.7928 71.7012 82.4588 71.7012C81.3798 71.7012 80.4971 72.584 80.4971 73.6629V74.8988C80.4971 75.9778 81.3798 76.8605 82.4588 76.8605C83.42 76.8605 84.5971 76.7232 84.7344 76.7428C84.8325 76.7625 84.8717 76.8605 85.0287 76.8605H85.4799C85.5976 76.8605 85.676 76.7625 85.676 76.6644V71.8973C85.676 71.7796 85.5779 71.7012 85.4799 71.7012ZM84.754 75.1931C84.754 75.6639 84.4401 76.5074 82.8904 76.3897C82.1057 76.3309 81.4583 75.7424 81.4583 74.9577V73.5844C81.4583 72.7998 82.1057 72.1524 82.8904 72.1524H84.6559C84.7148 72.1524 84.754 72.1916 84.754 72.2505V75.1931Z" fill="white"/>
<path d="M76.9266 76.8605C75.8476 76.8605 74.9648 75.9778 74.9648 74.8988V73.6629C74.9648 72.584 75.8476 71.7012 76.9266 71.7012H79.4964C79.516 71.7012 79.5357 71.7208 79.5357 71.7404V72.1131C79.5357 72.1328 79.516 72.1524 79.4964 72.1524C78.7706 72.1524 78.0644 72.1524 77.3385 72.1524C76.5538 72.1524 75.9065 72.7998 75.9065 73.5844V74.9577C75.9065 75.7424 76.5538 76.3897 77.3385 76.3897C78.0644 76.3897 78.7706 76.3897 79.4964 76.3897C79.516 76.3897 79.5357 76.4093 79.5357 76.429V76.8017C79.5357 76.8213 79.516 76.8409 79.4964 76.8409L76.9266 76.8605Z" fill="white"/>
<path d="M25.6862 72.0935C26.157 72.0935 26.157 71.4461 25.7058 71.4068C24.3914 71.2695 23.1752 71.5638 22.8613 72.6035C22.6259 73.3882 23.0967 74.0944 24.2345 74.3102C25.7254 74.5849 26.2943 75.3107 25.6665 75.9777C25.3331 76.3112 24.3326 76.1935 23.6067 76.2327C22.822 76.272 22.9201 76.8605 23.6067 76.8605C24.7838 76.8801 26.0981 77.037 26.5689 76.2523C27.0594 75.4284 26.6474 74.2906 25.7254 74.0944C24.4895 73.8394 23.7244 73.5648 23.8814 72.8585C24.0187 72.1523 24.6268 72.1131 25.6862 72.0935Z" fill="white"/>
<path d="M14.2105 63.0696C14.6438 63.0696 14.9952 62.7183 14.9952 62.2849C14.9952 61.8516 14.6438 61.5002 14.2105 61.5002C13.7771 61.5002 13.4258 61.8516 13.4258 62.2849C13.4258 62.7183 13.7771 63.0696 14.2105 63.0696Z" fill="white"/>
<path d="M53.3662 50.7303C53.7996 50.7303 54.1509 50.379 54.1509 49.9456C54.1509 49.5122 53.7996 49.1609 53.3662 49.1609C52.9329 49.1609 52.5815 49.5122 52.5815 49.9456C52.5815 50.379 52.9329 50.7303 53.3662 50.7303Z" fill="white"/>
<path d="M16.8582 61.5002C16.407 61.5002 16.0539 61.8534 16.0735 62.2849C16.0735 62.7165 16.4266 63.0696 16.8582 63.0696C17.2898 63.0696 17.6429 62.7165 17.6429 62.2849C17.6429 61.8534 17.2898 61.5002 16.8582 61.5002Z" fill="white"/>
<path d="M77.4561 50.7303C77.8894 50.7303 78.2408 50.379 78.2408 49.9456C78.2408 49.5122 77.8894 49.1609 77.4561 49.1609C77.0227 49.1609 76.6714 49.5122 76.6714 49.9456C76.6714 50.379 77.0227 50.7303 77.4561 50.7303Z" fill="white"/>
<path d="M56.0145 50.7303C56.4461 50.7303 56.7992 50.3772 56.7992 49.9456C56.7992 49.514 56.4461 49.1609 56.0145 49.1609C55.5633 49.1609 55.2102 49.514 55.2298 49.9456C55.2298 50.3772 55.5829 50.7303 56.0145 50.7303Z" fill="white"/>
<path d="M74.8275 50.7303C75.259 50.7303 75.6122 50.3772 75.6122 49.9456C75.6122 49.514 75.259 49.1609 74.8275 49.1609C74.3763 49.1609 74.0232 49.514 74.0428 49.9456C74.0428 50.3772 74.3959 50.7303 74.8275 50.7303Z" fill="white"/>
<path d="M93.6601 52.8293H92.385C92.3065 52.8293 92.2477 52.8882 92.2281 52.9667C92.2281 55.2815 92.2281 57.5767 92.2281 59.8916C92.2281 62.2064 91.1491 62.2849 90.7175 62.4418C90.1486 62.638 90.286 63.2854 90.9529 63.1873C91.9338 63.05 93.7974 62.3438 93.7974 59.2246C93.7974 56.8313 93.7974 55.36 93.7974 52.9667C93.7974 52.8882 93.7386 52.8293 93.6601 52.8293Z" fill="white"/>
<path d="M93.0518 50.7303C93.4852 50.7303 93.8365 50.379 93.8365 49.9456C93.8365 49.5122 93.4852 49.1609 93.0518 49.1609C92.6184 49.1609 92.2671 49.5122 92.2671 49.9456C92.2671 50.379 92.6184 50.7303 93.0518 50.7303Z" fill="white"/>
<path d="M105.116 52.79H100.585C97.7989 52.79 96.0137 53.7513 96.0334 56.4585V59.3619C96.0334 59.4403 96.0922 59.4992 96.1707 59.4992H103.566C103.645 59.5384 103.723 59.5973 103.723 59.6757V61.4413C103.704 61.8729 103.096 62.226 102.742 62.5202C102.429 62.7949 102.429 62.9911 103.096 62.9322C103.939 62.8537 105.273 61.814 105.253 60.8528V59.3815V58.0475V52.9274C105.253 52.8489 105.195 52.79 105.116 52.79ZM103.704 58.1063C103.704 58.1848 103.625 58.2633 103.547 58.2633H97.7597C97.6812 58.2633 97.6027 58.1848 97.6027 58.1063V56.0858C97.6027 55.1834 98.2305 54.1044 99.9961 54.1044H103.547C103.625 54.1044 103.704 54.1829 103.704 54.2613V58.1063Z" fill="white"/>
<path d="M89.2855 49.1414H88.0104C87.9319 49.1414 87.873 49.2198 87.873 49.2983V59.4209C87.873 59.4993 87.9319 59.5582 88.0104 59.5582H89.2855C89.3639 59.5582 89.4228 59.4993 89.4228 59.4209V49.2787C89.4228 49.2002 89.3639 49.1414 89.2855 49.1414Z" fill="white"/>
<path d="M65.2542 49.1414H63.9791C63.9203 49.1414 63.8418 49.2198 63.8418 49.2983V59.4209C63.8418 59.4993 63.9007 59.5582 63.9791 59.5582H65.2542C65.3327 59.5582 65.3916 59.4993 65.3916 59.4209V49.2787C65.3916 49.2002 65.3327 49.1414 65.2542 49.1414Z" fill="white"/>
<path d="M85.0874 52.8293H83.8123C83.7338 52.8293 83.6749 52.8882 83.6553 52.9667C83.6553 55.2815 83.6553 57.5767 83.6553 59.8916C83.6553 62.2064 82.5764 62.2849 82.1448 62.4418C81.5759 62.638 81.7132 63.2854 82.3802 63.1873C83.3611 63.05 85.2247 62.3438 85.2247 59.2246C85.2247 56.8313 85.2247 55.36 85.2247 52.9667C85.2247 52.8882 85.1658 52.8293 85.0874 52.8293Z" fill="white"/>
<path d="M80.2807 52.8293H75.7491C72.9635 52.8293 71.1783 53.7906 71.1979 56.4978V59.4012C71.1979 59.4796 71.2568 59.5385 71.3352 59.5385C74.3171 59.5385 77.2989 59.5385 80.2807 59.5385C80.3592 59.5385 80.418 59.4796 80.418 59.4012V52.9667C80.418 52.8882 80.3592 52.8293 80.2807 52.8293ZM78.8486 58.1064C78.8486 58.1849 78.7702 58.2633 78.6917 58.2633H72.9046C72.8261 58.2633 72.7477 58.1849 72.7477 58.1064V56.0858C72.7477 55.1834 73.3754 54.1045 75.141 54.1045H78.6917C78.7702 54.1045 78.8486 54.1829 78.8486 54.2614V58.1064Z" fill="white"/>
<path d="M61.0955 49.1218H59.84C59.7616 49.1218 59.7027 49.1806 59.7027 49.2591V57.8515C59.7027 57.9299 59.6438 57.9888 59.5654 57.9888H55.6223C55.5438 57.9888 55.485 57.9299 55.485 57.8515V52.9275C55.485 52.8491 55.4261 52.7902 55.3477 52.7902H54.0726C53.9941 52.7902 53.9352 52.8491 53.9352 52.9275V57.8515C53.9352 57.9299 53.8764 57.9888 53.7979 57.9888H37.6725C37.5941 57.9888 37.5156 57.9103 37.5156 57.8319V56.0859C37.5156 55.1835 38.1433 54.0849 39.9089 54.0849H46.4414C46.5199 54.0849 46.5788 54.0261 46.5788 53.9476V52.9471C46.5788 52.8687 46.5199 52.8098 46.4414 52.8098H40.4974C37.7118 52.8098 35.9266 53.7711 35.9462 56.4783V57.8319C35.9462 57.9103 35.8874 57.9692 35.8089 57.9692H22.7046C22.6261 57.9692 22.5672 57.9103 22.5672 57.8319V49.2198C22.5672 49.1414 22.5084 49.0825 22.4299 49.0825H21.1548C21.0763 49.0825 21.0175 49.1414 21.0175 49.2198V57.8515C21.0175 57.9299 20.9586 57.9888 20.8802 57.9888H16.4663C16.3878 57.9888 16.329 57.9299 16.329 57.8515V53.0256C16.329 52.9471 16.2701 52.8883 16.1916 52.8883H14.9165C14.838 52.8883 14.7792 52.9471 14.7792 53.0256V57.8515C14.7792 57.9299 14.7203 57.9888 14.6419 57.9888H11.7778C11.6993 57.9888 11.6404 57.9299 11.6404 57.8515V56.4979C11.66 53.7907 9.87488 52.8294 7.08923 52.8294H1.49831C1.41984 52.8294 1.36099 52.8883 1.36099 52.9668V61.4415H1.38061C1.36099 61.873 0.752856 62.2261 0.399745 62.5204C0.0858693 62.795 0.0858699 62.9912 0.752856 62.9324C1.5964 62.8539 2.93037 61.8142 2.91075 60.8529V59.519H11.4835H61.0955C61.174 59.519 61.2328 59.4601 61.2328 59.3816V49.2591C61.2328 49.1806 61.174 49.1218 61.0955 49.1218ZM10.0907 57.8319C10.0907 57.9103 10.0318 57.9888 9.93373 57.9888H3.08731C3.00884 57.9888 2.93037 57.9103 2.93037 57.8319V54.2615C2.93037 54.183 3.00884 54.1046 3.08731 54.1046H7.69736C9.46292 54.1046 10.0907 55.1835 10.0907 56.0859V57.8319Z" fill="white"/>
<mask id="mask0_412_5519" style="mask-type:luminance" maskUnits="userSpaceOnUse" x="129" y="56" width="79" height="24">
<path d="M207.581 56.5078H129.274V80H207.581V56.5078Z" fill="white"/>
</mask>
<g mask="url(#mask0_412_5519)">
<path d="M152.476 77.8375L154.659 80.0001L156.691 77.8375L154.538 75.7046L152.476 77.8375Z" fill="white"/>
<path d="M178.194 58.9076L176.04 56.7747L173.978 58.9076L176.162 61.0406L178.194 58.9076Z" fill="white"/>
<path d="M192.932 61.2776L190.779 59.115L188.717 61.2776L190.9 63.4105L192.932 61.2776Z" fill="white"/>
<path d="M207.581 69.9276C207.52 68.8019 207.278 67.7948 206.883 66.9356C206.489 66.0764 205.913 65.3952 205.215 64.8915C204.518 64.3879 203.669 64.1509 202.668 64.1509C201.97 64.1509 201.303 64.299 200.727 64.6249C200.151 64.9211 199.605 65.3359 199.12 65.8394C198.634 66.3431 198.21 66.8763 197.815 67.4689C197.421 68.0613 197.087 68.6242 196.784 69.1871C196.511 69.6611 196.269 70.0461 196.026 70.3424C195.814 70.6386 195.571 70.846 195.328 70.9941C195.086 71.1423 194.813 71.2015 194.51 71.2015H194.449H193.569C193.115 71.2015 192.69 71.1719 192.296 71.1126C191.901 71.0534 191.507 70.9645 191.143 70.8756C191.113 70.8756 191.113 70.8756 191.082 70.846C191.325 70.2239 191.568 69.5722 191.78 68.8908C192.053 67.9724 192.326 66.9652 192.569 65.8394L189.111 67.0245C189.081 67.4392 189.051 67.9428 188.96 68.5057C188.869 69.0686 188.778 69.5722 188.656 70.0757C188.535 70.5794 188.444 70.9349 188.353 71.2015H185.502H185.26C184.562 71.2015 183.895 71.1423 183.258 70.9941C183.106 70.9645 182.955 70.9053 182.833 70.8756C182.833 70.5794 182.864 70.2831 182.833 69.9868C182.803 68.713 182.56 67.5874 182.105 66.5801C181.651 65.6026 181.014 64.8323 180.134 64.2694C179.285 63.7065 178.193 63.44 176.889 63.44C175.706 63.44 174.554 63.7361 173.401 64.3286C172.249 64.9211 171.096 65.7802 169.974 66.9356C168.882 68.0613 167.791 69.4833 166.729 71.1719C166.668 71.1719 166.577 71.1719 166.517 71.1423C166.123 71.083 165.728 70.9941 165.364 70.9053C165.334 70.9053 165.334 70.9053 165.304 70.8756C165.546 70.2535 165.789 69.6018 166.001 68.9204C166.274 68.002 166.547 66.9949 166.79 65.8691L163.332 67.0541C163.302 67.4689 163.272 67.9724 163.181 68.5353C163.09 69.0982 162.999 69.6018 162.877 70.1053C162.756 70.609 162.665 70.9645 162.574 71.2311H159.602H159.359H158.48C158.025 71.2311 157.6 71.2015 157.206 71.1423C156.812 71.083 156.418 70.9941 156.054 70.9053C156.023 70.9053 156.023 70.9053 155.993 70.8756C156.236 70.2535 156.478 69.6018 156.691 68.9204C156.963 68.002 157.236 66.9949 157.479 65.8691L154.022 67.0541C153.991 67.4689 153.961 67.9724 153.87 68.5353C153.779 69.0982 153.688 69.6018 153.567 70.1053C153.445 70.609 153.354 70.9645 153.263 71.2311H150.413H150.17C149.472 71.2311 148.805 71.1719 148.168 71.0238C148.017 70.9941 147.865 70.9349 147.744 70.9053C147.744 70.609 147.774 70.3127 147.744 70.0165C147.713 68.7427 147.471 67.617 147.016 66.6097C146.561 65.6322 145.924 64.8619 145.045 64.299C144.165 63.7361 143.103 63.4696 141.799 63.4696C140.617 63.4696 139.464 63.7657 138.342 64.3582C137.22 64.9508 136.158 65.8098 135.158 66.9949C135.006 67.1726 134.854 67.38 134.672 67.5874V56.5078H131.64V71.1719H129.274V74.0159H131.64H134.612H147.198C147.258 73.8085 147.289 73.6307 147.319 73.4234C147.349 73.4234 147.349 73.453 147.38 73.453C148.259 73.8381 149.169 74.0159 150.079 74.0159H150.322H154.234C154.446 73.7196 154.628 73.3937 154.81 73.0975C154.81 73.0975 154.81 73.0975 154.841 73.0975C155.356 73.3641 155.963 73.5715 156.66 73.7492C157.358 73.927 158.177 74.0159 159.147 74.0159H159.299H159.541H163.454C163.666 73.7196 163.848 73.3937 164.03 73.0975C164.03 73.0975 164.03 73.0975 164.06 73.0975C164.576 73.3641 165.182 73.5715 165.88 73.7492C166.577 73.927 167.396 74.0159 168.367 74.0159H168.427H168.518H182.196C182.257 73.8085 182.287 73.6307 182.318 73.4234C182.348 73.4234 182.348 73.453 182.378 73.453C183.258 73.8381 184.168 74.0159 185.078 74.0159H185.32H189.232C189.445 73.7196 189.627 73.3937 189.809 73.0975C189.809 73.0975 189.809 73.0975 189.839 73.0975C190.355 73.3641 190.961 73.5715 191.659 73.7492C192.356 73.927 193.175 74.0159 194.146 74.0159H194.297H194.358H194.54C195.147 73.9863 195.692 73.8974 196.147 73.7196C196.633 73.5122 197.057 73.2456 197.421 72.9197C197.603 72.742 197.755 72.5642 197.906 72.3864C197.937 72.4161 197.967 72.4753 197.997 72.5049C198.452 72.9493 198.968 73.3345 199.514 73.6307C200.06 73.927 200.666 74.1344 201.303 74.2824C201.94 74.4305 202.577 74.4898 203.244 74.4898C203.911 74.4898 204.548 74.4009 205.215 74.2528C205.883 74.1048 206.489 73.8974 207.096 73.6011C207.49 72.2976 207.642 71.0534 207.581 69.9276ZM144.741 71.1719H134.703C135.067 70.5794 135.461 70.0461 135.855 69.5722C136.765 68.476 137.705 67.6466 138.645 67.0837C139.585 66.5208 140.526 66.2542 141.375 66.2542C142.224 66.2542 142.891 66.4616 143.407 66.8467C143.892 67.2615 144.256 67.8243 144.468 68.5649C144.681 69.3352 144.772 70.1942 144.741 71.1719ZM169.914 71.1719C170.277 70.6386 170.641 70.135 171.005 69.6907C171.915 68.5649 172.855 67.7355 173.765 67.143C174.705 66.5505 175.615 66.2542 176.525 66.2542C177.344 66.2542 178.011 66.4616 178.496 66.8467C178.982 67.2319 179.315 67.8243 179.528 68.5649C179.74 69.3056 179.831 70.1646 179.801 71.1423H169.914V71.1719ZM204.882 71.6459C204.215 71.7348 203.547 71.7348 202.941 71.6459C202.304 71.557 201.758 71.4385 201.212 71.2311C200.697 71.0238 200.211 70.7868 199.817 70.5201C199.665 70.4312 199.544 70.3127 199.423 70.2239C199.878 69.4241 200.272 68.8019 200.575 68.3575C200.939 67.8539 201.273 67.4985 201.576 67.3207C201.879 67.143 202.152 67.0541 202.425 67.0541C202.82 67.0541 203.153 67.1726 203.487 67.4096C203.82 67.6466 204.093 68.002 204.306 68.4168C204.518 68.8612 204.7 69.3352 204.791 69.8981C204.882 70.4609 204.912 71.0238 204.882 71.6459Z" fill="white"/>
</g>
<path d="M176.279 14.6637C177.683 14.6637 178.814 13.5327 178.814 12.1287C178.814 10.7247 177.683 9.59375 176.279 9.59375C174.875 9.59375 173.744 10.7247 173.744 12.1287C173.744 13.5327 174.875 14.6637 176.279 14.6637ZM176.279 9.98375C176.649 9.98375 177 10.0813 177.293 10.2373C177.215 10.2957 177.156 10.3932 177.156 10.4907H177.449V10.3347C178.034 10.7247 178.424 11.3877 178.424 12.1287C178.424 13.3182 177.468 14.2737 176.279 14.2737C175.089 14.2737 174.134 13.3182 174.134 12.1287C174.134 10.9392 175.089 9.98375 176.279 9.98375Z" fill="white"/>
<path d="M158.846 14.8004C160.25 14.8004 161.382 13.6695 161.382 12.2654C161.382 10.8615 160.25 9.73047 158.846 9.73047C157.443 9.73047 156.312 10.8615 156.312 12.2654C156.312 13.6695 157.462 14.8004 158.846 14.8004ZM158.846 10.1205C160.036 10.1205 160.991 11.076 160.991 12.2654C160.991 13.4549 160.036 14.4104 158.846 14.4104C157.657 14.4104 156.701 13.4549 156.701 12.2654C156.701 11.076 157.677 10.1205 158.846 10.1205Z" fill="white"/>
<path d="M167.563 9.5746C168.967 9.5746 170.098 8.44361 170.098 7.03963C170.098 5.63563 168.967 4.50464 167.563 4.50464C166.159 4.50464 165.028 5.63563 165.028 7.03963C165.028 8.44361 166.159 9.5746 167.563 9.5746ZM167.563 4.89465C168.363 4.89465 169.045 5.32364 169.416 5.96713C169.279 5.98663 169.123 5.90864 169.104 6.08414C169.084 6.31813 169.24 6.24014 169.416 6.25964V5.98663C169.455 6.04514 169.474 6.10363 169.513 6.16213V6.24014H169.552C169.572 6.25963 169.572 6.29863 169.591 6.33763C169.572 6.33763 169.552 6.33763 169.533 6.33763L169.552 6.63013H169.689C169.689 6.66913 169.708 6.70813 169.708 6.74712H169.533V7.02013H169.728C169.728 7.02013 169.728 7.02013 169.728 7.03963C169.728 7.05913 169.728 7.09812 169.728 7.11762H169.552L169.572 7.41013C169.63 7.42962 169.669 7.44912 169.708 7.44912C169.708 7.48812 169.689 7.50762 169.689 7.54661H169.552V7.80012H169.591C169.279 8.59961 168.499 9.18461 167.583 9.18461C166.725 9.18461 165.984 8.67761 165.652 7.95612H167.388C167.563 7.95612 167.661 8.15112 167.817 8.20962C167.875 8.15112 167.524 7.91711 167.466 7.89761H165.633C165.633 7.87812 165.613 7.85862 165.613 7.83912H167.466C167.485 7.83912 167.661 7.93661 167.7 7.95612C167.739 7.99512 167.914 8.22912 167.953 8.19012V6.39612C167.953 6.35713 167.797 6.14263 167.758 6.10363C167.7 6.04514 167.466 5.94763 167.388 5.94763H165.789C166.101 5.30414 166.783 4.89465 167.563 4.89465Z" fill="white"/>
<path d="M184.196 0H151.885C146.893 0 142.837 4.05596 142.837 9.04792V41.3592C142.837 46.3511 146.893 50.407 151.885 50.407H166.023H170.04H184.177C189.169 50.407 193.225 46.3511 193.225 41.3592V9.04792C193.225 4.05596 189.188 0 184.196 0ZM180.433 46.6436H170.04V37.9272H178.229V37.0302H158.379V37.9272H166.023V46.6436H155.629C150.637 46.6436 146.581 42.5877 146.581 37.5957V28.2552L149.877 34.8462C150.208 34.8852 150.033 34.4757 149.974 34.3003C149.409 32.6038 148.668 30.9657 148.141 29.2693C148.102 29.1328 147.966 28.8793 148.161 28.8793C154.732 29.6398 161.479 31.0047 166.861 35.0412C166.315 33.6567 164.794 32.5063 163.546 31.7652C158.652 28.8013 152.236 27.7873 146.581 27.0073V12.7919C146.581 7.79994 150.637 3.74397 155.629 3.74397H180.433C185.425 3.74397 189.481 7.79994 189.481 12.7919V27.0853C183.787 27.9043 177.137 28.9572 172.399 32.1748C172.009 32.4478 169.377 34.6318 169.747 35.0218C175.11 30.9853 181.857 29.6202 188.428 28.8793C188.623 28.8793 188.486 29.1132 188.447 29.2693C187.921 30.9657 187.18 32.6038 186.614 34.3003C186.556 34.4757 186.361 34.8852 186.712 34.8462L189.481 29.3083V37.5763C189.481 42.5877 185.425 46.6436 180.433 46.6436Z" fill="white"/>
<path d="M163.488 12.4604C163.78 12.5579 164.17 12.2264 164.443 12.1289C166.354 11.3879 167.875 11.1929 169.884 11.7584C170.235 11.8559 171.132 12.2849 171.366 12.3044C171.639 12.3239 171.853 12.0119 171.775 11.7584C171.697 11.4854 170.488 11.1149 170.176 11.0174C169.026 10.6859 167.836 10.5884 166.627 10.7054C166.062 10.7639 165.419 10.9394 164.872 11.1344C164.561 11.2514 163.664 11.6024 163.43 11.7779C163.156 11.9924 163.196 12.3824 163.488 12.4604Z" fill="white"/>
<path d="M161.07 16.3018C161.07 16.6333 161.343 16.9258 161.694 16.9258C162.025 16.9258 162.318 16.6528 162.318 16.3018C162.318 16.2238 162.298 16.1263 162.279 16.0678C162.435 15.8728 162.571 15.6194 162.708 15.4438C164.677 13.2404 167.466 12.3824 170.254 13.5914C171.502 14.1373 172.38 15.1123 173.277 16.1068C174.505 16.1848 173.335 14.9368 172.965 14.5468C171.502 13.0258 169.377 12.1289 167.251 12.2653C165.535 12.3824 163.761 13.2014 162.552 14.4299C162.337 14.6443 161.811 15.2489 161.596 15.6973C161.284 15.7363 161.07 15.9898 161.07 16.3018Z" fill="white"/>
<path d="M152.236 23.8481L152.957 27.0072C154.361 27.3387 155.765 27.4947 157.15 27.8652C161.147 28.9376 164.755 31.1412 167.758 33.9491C167.875 33.8126 166.607 32.0186 166.412 31.7846C162.902 27.5921 157.403 25.2716 152.236 23.8481Z" fill="white"/>
<path d="M183.651 27.0072L184.372 23.8481C179.224 25.2716 173.686 27.5921 170.196 31.7846C170.001 32.0186 168.714 33.8126 168.85 33.9491C171.853 31.1412 175.461 28.9376 179.458 27.8652C180.843 27.4947 182.247 27.3387 183.651 27.0072Z" fill="white"/>
<path d="M157.833 22.2298L158.398 25.2718C162.2 26.1492 165.067 29.0158 167.582 31.7848C166.51 28.2553 163.351 25.1938 160.231 23.3413C159.9 23.1463 158.047 22.0153 157.833 22.2298Z" fill="white"/>
<path d="M178.21 25.2719L178.775 22.2299C178.541 22.0349 176.728 23.1463 176.377 23.3413C173.276 25.1938 170.098 28.2552 169.025 31.7848C171.541 29.0157 174.407 26.1493 178.21 25.2719Z" fill="white"/>
<path d="M169.494 25.0183C169.825 25.0183 170.118 24.7453 170.118 24.3943C170.118 24.0628 169.845 23.7702 169.494 23.7702C169.435 23.7702 169.377 23.7898 169.318 23.7898C169.045 23.6533 168.733 23.4973 168.616 23.4193C167.368 22.5613 166.218 20.9233 166.374 19.3438C166.452 18.4858 167.31 17.7839 168.148 18.1933C169.104 18.6613 168.967 20.5138 170.137 21.1962C170.82 21.5863 171.951 21.3912 172.497 20.8453C173.725 19.6168 172.848 17.1793 171.892 16.0093C170.118 13.8253 167.251 13.3573 164.794 14.7613C162.591 16.0289 162.025 18.4469 162.22 20.8453C162.22 20.9428 162.24 21.0597 162.259 21.1768C162.201 21.2743 162.162 21.3912 162.162 21.5083C162.162 21.8398 162.435 22.1323 162.786 22.1323C163.117 22.1323 163.41 21.8592 163.41 21.5083C163.41 21.2743 163.273 21.0793 163.078 20.9622C163.039 20.8063 163.02 20.6503 163 20.5138C162.922 17.7253 163.897 15.2684 166.978 14.8198C169.669 14.4298 172.633 16.7113 172.302 19.5193C172.185 20.6113 170.781 21.0597 170.137 20.1238C169.455 19.1488 169.572 17.5108 167.875 17.3159C166.237 17.1209 165.477 18.7003 165.594 20.1433C165.73 21.7227 167.31 23.8288 168.87 24.5503C168.967 24.8233 169.201 25.0183 169.494 25.0183Z" fill="white"/>
<path d="M171.132 20.2017C171.463 20.2017 171.756 19.9287 171.756 19.5777C171.756 19.3632 171.639 19.1682 171.463 19.0512C171.405 18.6417 171.249 18.1737 171.171 17.9398C170.488 16.3213 168.909 15.4438 167.154 15.6778C166.355 15.7947 165.282 16.4188 164.755 17.0232C162.922 19.0903 164.034 22.4637 165.613 24.3553C165.672 24.4137 165.731 24.5112 165.808 24.5891C165.808 24.6282 165.789 24.6672 165.789 24.7062C165.789 25.0377 166.062 25.3302 166.413 25.3302C166.744 25.3302 167.037 25.0572 167.037 24.7062C167.037 24.3942 166.803 24.1407 166.491 24.1017C166.296 23.8677 166.062 23.6337 165.945 23.4971C164.6 21.6642 163.703 18.4467 166.023 16.9842C168.012 15.7558 170.235 16.7503 170.664 19.0122C170.683 19.0707 170.683 19.1293 170.683 19.1878C170.586 19.3047 170.527 19.4412 170.527 19.5972C170.508 19.9287 170.781 20.2017 171.132 20.2017Z" fill="white"/>
<path d="M171.698 22.5223C171.639 22.5418 171.561 22.5418 171.503 22.5418C170.04 22.5223 168.617 21.7228 168.129 20.2993C168.012 19.9288 168.071 19.1294 167.525 19.1879C166.862 19.2463 167.408 20.6698 167.564 21.0013C168.285 22.5223 170.001 23.3997 171.639 23.3218C171.698 23.3218 171.795 23.3023 171.912 23.2828C172.01 23.3413 172.127 23.3803 172.244 23.3803C172.575 23.3803 172.868 23.1073 172.868 22.7563C172.868 22.4248 172.595 22.1323 172.244 22.1323C172.01 22.1518 171.795 22.3077 171.698 22.5223Z" fill="white"/>
<path d="M177.449 13.3183V10.5883C177.391 10.5688 177.157 10.5688 177.157 10.6663V13.3768H177.352C177.371 13.3962 177.449 13.3573 177.449 13.3183Z" fill="white"/>
<path d="M174.993 13.7669C174.993 13.8058 174.993 13.8254 175.032 13.8448C175.11 13.8644 175.285 13.8644 175.285 13.7473C175.285 12.9868 175.285 12.2263 175.285 11.4658C175.285 11.4268 175.305 11.3683 175.285 11.3293H175.11L175.051 11.3488C174.973 11.3878 175.032 11.5633 174.993 11.6413V13.7669Z" fill="white"/>
<path d="M177.021 13.3183V10.8613H176.845C176.826 10.8613 176.748 10.9003 176.748 10.9393V13.3963H176.943C176.943 13.3963 177.021 13.3379 177.021 13.3183Z" fill="white"/>
<path d="M176.299 11.4073V13.3964H176.514C176.533 13.3964 176.592 13.3378 176.592 13.3183V11.3098H176.397C176.377 11.3098 176.299 11.3683 176.299 11.4073Z" fill="white"/>
<path d="M175.538 11.3098C175.519 11.3098 175.46 11.3488 175.441 11.3488C175.441 11.3878 175.441 11.4073 175.441 11.4268V11.4463C175.421 12.0703 175.46 12.7138 175.441 13.3378V13.3573C175.46 13.3768 175.636 13.3573 175.655 13.3573C175.675 13.3573 175.714 13.2793 175.714 13.2598V11.3293C175.714 11.3293 175.694 11.3098 175.714 11.3098H175.538Z" fill="white"/>
<path d="M175.714 10.9395C175.694 10.881 175.616 10.842 175.558 10.8615C175.441 10.881 175.382 10.998 175.441 11.0955C175.558 11.2515 175.792 11.115 175.714 10.9395Z" fill="white"/>
<path d="M175.987 11.1539C176.221 11.1734 176.201 10.8224 175.967 10.8614C175.811 10.9004 175.831 11.1539 175.987 11.1539Z" fill="white"/>
<path d="M176.844 13.8058C176.981 13.8253 177.059 13.6693 176.981 13.5718C176.883 13.4547 176.688 13.5133 176.708 13.6693C176.708 13.7278 176.786 13.8058 176.844 13.8058Z" fill="white"/>
<path d="M176.533 11.1345C176.669 11.0565 176.591 10.8225 176.416 10.8615C176.318 10.881 176.279 10.9785 176.299 11.0565C176.338 11.154 176.455 11.193 176.533 11.1345Z" fill="white"/>
<path d="M175.968 13.4355H175.928V13.4551H175.968V13.4355Z" fill="white"/>
<path d="M175.91 11.349L175.871 11.4075V13.3769C175.949 13.3769 176.085 13.3965 176.124 13.3379L176.144 13.299V11.3295C176.105 11.31 175.949 11.31 175.91 11.349Z" fill="white"/>
<path d="M158.223 12.9284C158.242 12.9284 158.301 12.9869 158.32 12.9869C158.671 13.2013 159.1 13.2013 159.412 12.9284C159.763 13.1819 160.212 13.2209 160.582 12.9869C160.641 12.9479 160.699 12.9089 160.738 12.8504C160.797 12.8114 160.738 12.7919 160.699 12.8114C160.407 12.9674 160.095 13.0064 159.802 12.8504C159.763 12.8309 159.588 12.7334 159.588 12.7139C159.568 12.6749 159.646 12.6554 159.607 12.6359C159.568 12.5969 159.529 12.6554 159.51 12.6359C159.49 12.6359 159.393 12.5189 159.373 12.4994C159.354 12.4799 159.354 12.4799 159.354 12.4799C159.334 12.4409 159.295 12.3629 159.276 12.3239C159.256 12.2849 159.256 12.2264 159.237 12.1874C159.237 12.1679 159.237 12.1679 159.237 12.1484C159.237 12.1094 159.256 12.0899 159.217 12.1094C159.217 12.0899 159.217 12.0704 159.217 12.0704C159.237 12.0119 159.237 11.9339 159.217 11.8754C159.217 11.8559 159.217 11.8364 159.237 11.8364C159.237 11.8169 159.237 11.8169 159.256 11.7974C159.256 11.7779 159.256 11.7779 159.256 11.7584C159.276 11.7194 159.295 11.6609 159.295 11.6219V11.5829C159.295 11.5829 159.315 11.6024 159.315 11.5634V11.5439C159.315 11.5439 159.334 11.5634 159.334 11.5244C159.334 11.5244 159.334 11.5244 159.334 11.5049C159.373 11.4854 159.373 11.4074 159.412 11.4464C159.451 11.4659 159.549 11.6414 159.568 11.6804C159.666 11.8559 159.724 12.0314 159.724 12.2264C159.724 12.2654 159.685 12.4409 159.685 12.4604L159.744 12.4994C159.763 12.4994 159.822 12.3629 159.841 12.3434C159.978 11.9729 159.88 11.5244 159.588 11.2514C159.49 11.2904 159.393 11.3684 159.315 11.4464C159.315 11.4464 159.315 11.4659 159.295 11.4659C159.295 11.4659 159.295 11.4659 159.276 11.4854C159.276 11.4854 159.276 11.4854 159.256 11.5049C159.237 11.5244 159.198 11.6024 159.198 11.6024C159.198 11.6024 159.198 11.5829 159.178 11.6219C159.159 11.6414 159.139 11.7194 159.139 11.7194C159.139 11.7194 159.139 11.6999 159.12 11.7389C159.12 11.7584 159.12 11.7584 159.1 11.7779C159.081 11.8169 159.081 11.8169 159.061 11.8754V11.8949C159.061 11.8949 159.042 11.8949 159.042 11.9144C159.042 11.9339 159.042 11.9339 159.042 11.9534C159.022 11.9534 159.022 11.9729 159.022 11.9924C159.022 12.0119 159.022 12.0119 159.022 12.0314C159.022 12.0509 159.022 12.0509 159.022 12.0704C159.022 12.1094 159.022 12.1679 159.022 12.2069C159.022 12.2264 159.022 12.2264 159.022 12.2459V12.2654C159.022 12.2849 159.022 12.3044 159.042 12.3044V12.3239C159.042 12.3434 159.042 12.3629 159.061 12.3629V12.3824C159.061 12.4019 159.081 12.4799 159.1 12.4799C159.1 12.4994 159.1 12.4994 159.1 12.5189C159.1 12.5579 159.12 12.5384 159.12 12.5384C159.12 12.5384 159.139 12.5969 159.139 12.6164V12.6359H159.159C159.159 12.6359 159.159 12.6359 159.159 12.6554C159.178 12.6944 159.159 12.6554 159.178 12.6749C159.178 12.6749 159.237 12.7724 159.256 12.7724L159.276 12.7919C159.276 12.8114 159.198 12.8309 159.178 12.8309C158.944 12.9089 158.71 12.9089 158.476 12.8504C158.437 12.8504 158.359 12.8114 158.32 12.7919C158.301 12.7724 158.34 12.7334 158.34 12.7139C158.379 12.7139 158.379 12.6749 158.379 12.6554V12.6359H158.398V12.6164V12.5969H158.418V12.5774C158.418 12.5579 158.418 12.5384 158.437 12.5384C158.457 12.5384 158.496 12.4409 158.496 12.4214V12.4019C158.515 12.3824 158.515 12.3629 158.515 12.3434C158.515 12.3239 158.515 12.2849 158.535 12.2654C158.535 12.2654 158.554 12.2459 158.554 12.2264C158.554 12.1484 158.554 12.0509 158.535 11.9924C158.535 11.9729 158.535 11.9534 158.535 11.9534C158.535 11.8949 158.496 11.8169 158.476 11.7584C158.476 11.7389 158.476 11.7194 158.457 11.7194C158.457 11.6999 158.437 11.6804 158.437 11.6414C158.418 11.6024 158.418 11.6219 158.418 11.6219C158.418 11.6219 158.418 11.6024 158.398 11.5829C158.379 11.5439 158.379 11.5634 158.379 11.5634C158.359 11.5439 158.359 11.5244 158.34 11.5049C158.34 11.5049 158.359 11.4659 158.32 11.4854C158.32 11.4659 158.301 11.4659 158.301 11.4464C158.242 11.3489 158.125 11.2709 158.008 11.2124C157.677 11.5244 157.599 12.0704 157.852 12.4604C157.969 12.4214 157.911 12.4019 157.911 12.3239C157.872 12.1094 157.891 11.9924 157.969 11.7974C158.008 11.6999 158.145 11.4659 158.203 11.4074C158.242 11.3684 158.223 11.4269 158.242 11.4464C158.242 11.4659 158.262 11.4464 158.262 11.4659C158.281 11.4854 158.281 11.5439 158.301 11.5634C158.301 11.5829 158.281 11.5829 158.32 11.5829C158.32 11.6024 158.32 11.6024 158.32 11.6219C158.34 11.6804 158.34 11.7389 158.359 11.7974C158.359 11.8169 158.359 11.8169 158.359 11.8364C158.359 11.8754 158.379 11.8754 158.379 11.8949C158.379 11.9534 158.379 11.9729 158.379 12.0314C158.379 12.0509 158.359 12.0509 158.359 12.0899C158.359 12.1094 158.359 12.1094 158.359 12.1289C158.34 12.1289 158.34 12.1484 158.34 12.1679V12.1874C158.32 12.2264 158.32 12.2654 158.301 12.3044V12.3434C158.301 12.3434 158.281 12.3239 158.281 12.3629V12.3824C158.281 12.3824 158.262 12.3629 158.262 12.4019V12.4214C158.223 12.4214 158.242 12.4409 158.223 12.4604C158.203 12.4994 158.164 12.5774 158.125 12.5969C158.125 12.5969 158.125 12.5969 158.106 12.6164C158.106 12.6164 158.086 12.6554 158.067 12.6554L158.008 12.6359C158.008 12.6359 158.028 12.5969 157.989 12.6164C157.969 12.6164 157.989 12.6359 157.989 12.6359C157.989 12.6359 157.969 12.6164 157.969 12.6554C157.969 12.6749 157.969 12.6944 157.989 12.6944C157.989 12.6944 157.989 12.6944 157.989 12.7139C157.989 12.7334 157.989 12.7334 157.989 12.7529C157.95 12.7724 157.969 12.7724 157.969 12.7724C157.95 12.7919 157.93 12.7919 157.911 12.8114C157.872 12.8309 157.891 12.8309 157.891 12.8309C157.872 12.8504 157.657 12.9284 157.618 12.9284C157.326 13.0064 157.092 12.9479 156.819 12.8114C156.819 12.8504 156.819 12.8504 156.838 12.8504C157.209 13.2209 157.872 13.2404 158.223 12.9284Z" fill="white"/>
<path d="M159.471 12.2849L159.374 12.0314C159.354 12.2264 159.432 12.4604 159.569 12.5969C159.978 13.0259 160.7 12.8114 160.836 12.2459C160.856 12.1679 160.875 12.0119 160.817 11.9729C160.817 12.2069 160.661 12.4409 160.466 12.5384C160.115 12.7334 159.686 12.6164 159.471 12.2849Z" fill="white"/>
<path d="M157.657 12.8311C158.028 12.7726 158.281 12.4216 158.262 12.0511C158.242 12.0121 158.203 12.1486 158.203 12.1681C157.95 12.8311 157.072 12.8311 156.838 12.1486C156.838 12.1291 156.799 11.9731 156.78 12.0121V12.1876C156.78 12.2461 156.838 12.4021 156.877 12.4606C157.014 12.7336 157.326 12.8896 157.657 12.8311Z" fill="white"/>
<path d="M159.042 11.2126C159.296 10.9396 158.867 10.5301 158.594 10.8226C158.34 11.1151 158.769 11.5051 159.042 11.2126Z" fill="white"/>
<path d="M168.226 7.39039L168.206 7.1174L167.914 7.0979C167.914 7.39039 167.933 7.5074 168.226 7.39039Z" fill="white"/>
<path d="M169.143 7.13693L169.124 7.40993C169.416 7.50743 169.455 7.39042 169.416 7.11743L169.143 7.13693Z" fill="white"/>
<path d="M169.415 6.61042L169.434 6.31792C169.161 6.29842 169.044 6.31792 169.142 6.61042H169.415Z" fill="white"/>
<path d="M167.973 6.33762L167.954 6.61062L168.227 6.63011C168.305 6.37662 168.227 6.29861 167.973 6.33762Z" fill="white"/>
<path d="M168.616 6.3374H168.343V6.6494H168.616V6.3374Z" fill="white"/>
<path d="M169.025 6.3374H168.752V6.6494H169.025V6.3374Z" fill="white"/>
<path d="M168.363 7.40993L168.616 7.42943V7.11743H168.343C168.343 7.19543 168.304 7.37092 168.363 7.40993Z" fill="white"/>
<path d="M169.006 7.39039L169.025 7.0979H168.752V7.40989C168.811 7.42939 168.967 7.44889 169.006 7.39039Z" fill="white"/>
<path d="M168.245 7.52661H167.933V7.79962L168.225 7.78012C168.264 7.74111 168.245 7.58511 168.245 7.52661Z" fill="white"/>
<path d="M169.143 7.78063C169.182 7.83912 169.377 7.80012 169.436 7.81962V7.54663H169.124L169.143 7.78063Z" fill="white"/>
<path d="M168.245 6.74707H167.933V7.02006L168.225 7.00056C168.264 6.96157 168.245 6.80557 168.245 6.74707Z" fill="white"/>
<path d="M169.436 7.02006V6.74707H169.124L169.143 7.00056C169.182 7.05906 169.358 7.02006 169.436 7.02006Z" fill="white"/>
<path d="M169.025 5.96704H168.752V6.24003H169.025V5.96704Z" fill="white"/>
<path d="M169.025 6.74707H168.752V7.02006H169.025V6.74707Z" fill="white"/>
<path d="M168.616 6.74707H168.343V7.02006H168.616V6.74707Z" fill="white"/>
<path d="M168.616 7.52661H168.343V7.79962H168.616V7.52661Z" fill="white"/>
<path d="M169.025 7.52661H168.752V7.79962H169.025V7.52661Z" fill="white"/>
<path d="M168.615 5.96699C168.557 5.96699 168.381 5.94749 168.342 6.00598L168.323 6.25949H168.596V5.96699H168.615Z" fill="white"/>
<path d="M167.933 8.17045L168.03 8.15095L168.206 7.89746H167.933V8.17045Z" fill="white"/>
<path d="M168.246 6.06445C168.207 6.02546 168.051 6.22046 168.031 6.25945L168.226 6.23995L168.246 6.06445Z" fill="white"/>
</svg>
