<svg width="95" height="96" viewBox="0 0 95 96" fill="none" xmlns="http://www.w3.org/2000/svg">
<path d="M16.8119 30.3886C16.8119 23.6591 16.7242 16.9263 16.8467 10.1985C16.9146 6.47116 18.8304 3.62638 21.9402 1.61946C23.7749 0.435512 25.8215 -0.00329315 28.004 1.85894e-05C39.4245 0.019889 50.8451 0.00829719 62.2656 0.00829719C63.6731 0.00829719 65.0789 -0.00494963 66.4864 0.0149208C72.5336 0.104338 77.2496 4.75733 77.2711 10.8112C77.3175 23.8032 77.3158 36.7968 77.2777 49.7887C77.2612 55.5479 72.8698 60.133 67.1223 60.5585C66.7927 60.5834 66.4616 60.5933 66.1304 60.5933C53.4133 60.595 40.6962 60.6065 27.9791 60.5933C22.7135 60.5883 18.4976 57.4256 17.1431 52.5342C16.8153 51.3519 16.7623 50.1398 16.7606 48.926C16.754 42.7463 16.7573 36.5683 16.7573 30.3886C16.7755 30.3886 16.7954 30.3886 16.8136 30.3886H16.8119ZM23.6523 36.7769L23.7186 36.9508C23.7534 37.0534 23.7881 37.1561 23.8229 37.2588C23.8477 37.3233 23.8726 37.3863 23.8974 37.4508C23.9206 37.5154 23.9438 37.58 23.967 37.6446C23.9752 37.6976 23.9984 37.7423 24.0382 37.7787C24.0762 37.8847 24.1127 37.9907 24.1508 38.0983C24.1839 38.1596 24.2187 38.2225 24.2518 38.2838C24.2766 38.3781 24.3031 38.4725 24.3279 38.5669L24.4223 38.7805C24.5002 38.9875 24.578 39.1961 24.6558 39.4031C24.6823 39.471 24.7104 39.5389 24.7369 39.6068C24.7552 39.6631 24.7717 39.7177 24.7899 39.774C24.5846 39.7724 24.3809 39.7707 24.1756 39.7691C23.2781 38.0006 22.3806 36.2305 21.4832 34.462C21.3176 34.7269 21.2828 34.9389 21.2828 35.1508C21.2828 38.5984 21.2381 42.0492 21.306 45.4951C21.4202 51.3039 26.1246 55.9569 31.93 56.0248C35.8743 56.0711 39.8203 56.0281 43.7645 56.0595C44.4219 56.0645 44.6223 55.8492 44.6173 55.2084C44.5941 52.2841 44.5875 49.3599 44.6223 46.4356C44.6306 45.7203 44.3623 45.563 43.7033 45.5712C41.193 45.6044 38.6827 45.5828 36.1724 45.5895C35.7584 45.5895 35.3941 45.601 35.4107 45.0149C35.4272 44.4469 35.8197 44.5214 36.1691 44.5198C43.5907 44.5181 51.0106 44.5181 58.4323 44.5247C58.7899 44.5247 59.2469 44.4022 59.2635 45.0314C59.2817 45.7203 58.7916 45.5861 58.4041 45.5861C55.7001 45.5911 52.996 45.6044 50.2937 45.5712C49.6545 45.563 49.4243 45.7352 49.4309 46.4008C49.4607 49.3516 49.4574 52.304 49.4326 55.2564C49.4276 55.8823 49.6578 56.0562 50.2572 56.0529C54.2015 56.0297 58.1474 56.0877 62.0917 56.0214C68.0595 55.9204 72.6794 51.2558 72.7721 45.2798C72.8185 42.3009 72.7936 39.322 72.7887 36.3414C72.7887 36.1245 72.9079 35.8546 72.5817 35.6244C71.7107 37.3548 70.8513 39.062 69.9935 40.7676C69.871 40.698 69.7485 40.6268 69.6276 40.5573C69.712 40.2956 69.7965 40.034 69.8809 39.7724C69.9124 39.7028 69.9439 39.6316 69.9737 39.5621C70.0184 39.3766 70.0416 39.1845 70.1095 39.009C70.5632 37.8565 71.0583 36.7223 71.4358 35.5383C71.6428 34.8892 71.5004 34.6971 70.8149 34.7932C68.9305 35.0548 67.0428 35.2949 65.1716 35.6476C59.5914 36.7024 54.2578 38.3781 49.58 41.7379C49.4773 41.8108 49.3796 41.9432 49.161 41.7942C49.2604 41.4001 49.5651 41.1269 49.835 40.8354C52.5523 37.8913 56.0842 36.3778 59.795 35.1906C63.7509 33.9255 67.8359 33.2615 71.9342 32.677C72.4376 32.6058 72.8118 32.5544 72.8085 31.8755C72.782 26.33 72.8814 20.7829 72.7605 15.239C72.628 9.17189 68.0015 4.56029 62.0536 4.52551C52.0389 4.4659 42.0242 4.5073 32.0079 4.50895C30.8107 4.50895 29.6483 4.73084 28.5223 5.12991C24.2617 6.64172 21.2331 10.7599 21.2795 15.4741C21.3308 20.7431 21.2878 26.0137 21.2844 31.2827C21.2844 32.475 21.2844 32.4584 22.4783 32.629C26.7968 33.2416 31.1021 33.9238 35.2534 35.3197C38.4591 36.3977 41.5457 37.7108 44.1073 40.0125C44.4401 40.3122 44.7018 40.6566 44.9137 41.0474C45.0065 41.2163 45.0346 41.3521 44.8707 41.4763C44.7167 41.5922 44.6322 41.4481 44.5246 41.3753C43.6371 40.7792 42.7445 40.1963 41.7957 39.6962C36.2552 36.7769 30.2361 35.6012 24.1077 34.8263C23.0413 34.6922 23.038 34.7236 23.3162 35.7999C23.3261 36.1096 23.245 36.4524 23.6159 36.6328C23.6474 36.6742 23.6606 36.7206 23.6573 36.7736L23.6523 36.7769Z" fill="white"/>
<path d="M6.94628 80.8098C7.58379 80.2568 8.19812 79.7517 8.78099 79.2136C10.8955 77.2613 13.3065 76.0906 16.2622 76.3257C19.6567 76.5956 21.8657 78.7085 22.4784 82.2587C22.6141 83.0502 22.692 83.845 22.6638 84.6465C22.6489 85.0886 22.8377 85.3055 23.255 85.3883C25.141 85.7675 27.0486 85.5837 28.9478 85.6036C29.3552 85.6086 29.4049 85.2592 29.4761 84.971C29.7758 83.7656 30.049 82.5518 30.1185 81.3099C30.1467 80.7933 30.3206 80.5134 30.8289 80.3594C31.7512 80.0812 32.6636 79.7584 33.5661 79.4172C34.1622 79.192 34.3692 79.2666 34.1887 79.9571C33.7995 81.4523 33.4551 82.9625 32.859 84.3898C32.5643 85.0969 32.7994 85.3188 33.4601 85.4247C35.6558 85.7758 37.8647 85.5622 40.067 85.6085C40.529 85.6185 40.5704 85.2525 40.6532 84.9396C40.9678 83.7374 41.2361 82.5237 41.3189 81.2818C41.3536 80.7618 41.5606 80.4919 42.0557 80.3429C42.9797 80.063 43.8937 79.7484 44.7978 79.4139C45.3923 79.1937 45.5479 79.3361 45.3873 79.9488C45.0081 81.3894 44.6157 82.8234 44.1338 84.2342C44.0245 84.5538 43.5063 85.0141 44.1636 85.2608C44.7184 85.4678 45.3393 85.789 45.8261 84.9959C46.6491 83.6563 47.5863 82.3895 48.6428 81.2221C50.6315 79.0215 52.8503 77.1355 55.8375 76.4632C60.618 75.3869 64.3139 78.1356 64.7213 83.0188C64.7511 83.3764 64.7991 83.7324 64.819 84.0901C64.8852 85.3121 64.8819 85.3171 66.1271 85.4761C67.6936 85.6748 69.2683 85.5638 70.8381 85.5953C71.3315 85.6052 71.5186 85.3519 71.6213 84.9313C71.9193 83.7258 72.1892 82.5121 72.282 81.2735C72.3201 80.7668 72.4658 80.477 72.9841 80.3247C73.9097 80.0548 74.8204 79.7269 75.7245 79.3908C76.3902 79.144 76.4846 79.3742 76.3223 79.9753C75.9199 81.4656 75.602 82.9807 74.996 84.408C74.7575 84.971 74.837 85.2525 75.4927 85.3701C76.6419 85.5754 77.7944 85.6417 78.9535 85.5688C79.947 85.5075 80.5067 84.8088 80.9968 84.0553C81.8397 82.7638 82.5136 81.3629 83.4806 80.1491C84.5835 78.7648 85.832 77.5494 87.6385 77.1951C90.5959 76.6155 93.1493 78.336 94.103 81.5384C94.7406 83.6811 94.6478 85.8404 94.0948 87.9947C93.9838 88.4268 93.7123 88.6405 93.3248 88.7713C89.7796 89.9718 86.39 89.995 83.3449 87.4433C83.0981 87.2363 82.8762 87.069 82.5749 87.3919C80.7898 89.2945 78.513 89.0875 76.2395 88.8276C75.3884 88.7299 74.5638 88.4666 73.7822 88.1222C73.3268 87.9218 73.0536 87.998 72.8566 88.4335C72.6595 88.8706 72.3151 88.9915 71.8515 88.9849C70.28 88.9617 68.707 88.9733 67.1339 88.9633C66.609 88.96 66.0907 88.8921 65.579 88.7597C64.9978 88.609 64.3918 88.1205 63.8586 88.9137C63.7741 89.0395 63.3883 88.9782 63.1416 88.9782C57.9554 88.9782 52.7692 88.9683 47.5847 88.9782C45.9387 88.9816 44.3342 88.7779 42.8158 88.1205C42.3306 87.9102 42.0392 87.998 41.8471 88.4898C41.7295 88.7928 41.5192 88.9849 41.1582 88.9782C38.8715 88.9352 36.5781 89.0892 34.2963 88.8408C33.4419 88.7481 32.6206 88.4914 31.8357 88.147C31.3952 87.9533 31.0458 87.9235 30.8173 88.4252C30.6054 88.8905 30.2427 88.9998 29.7476 88.9882C28.1481 88.9518 26.5485 88.965 24.9489 88.9517C24.3097 88.9451 23.6938 88.806 23.0844 88.6173C22.6804 88.4931 22.2217 88.1321 21.9501 88.8524C21.8723 89.0594 21.5478 88.9716 21.3341 88.9716C14.6312 88.9749 7.92822 88.9683 1.22525 88.9816C0.657288 88.9816 0.423809 88.811 0.456927 88.2265C0.495012 87.5393 0.490044 86.8471 0.46355 86.1583C0.446992 85.6864 0.642384 85.4976 1.09609 85.5373C1.15074 85.5423 1.20704 85.5407 1.26168 85.5407C2.62391 85.5219 3.30447 84.8181 3.30337 83.4294C3.30337 78.5744 3.31827 73.7194 3.28681 68.8644C3.28184 68.1408 3.47723 67.8609 4.2141 67.9255C4.84333 67.9818 5.48415 67.9702 6.11504 67.9354C6.75089 67.9007 6.97112 68.1259 6.9645 68.7882C6.93304 72.4013 6.94628 76.0144 6.94297 79.6292C6.94297 80.0349 6.94297 80.4422 6.94297 80.8132L6.94628 80.8098ZM13.0714 85.5539C13.0714 85.5539 13.0714 85.5589 13.0714 85.5605C14.3397 85.5605 15.6098 85.5605 16.8782 85.5605C18.5065 85.5605 19.1683 84.7392 18.8636 83.0966C18.3519 80.3346 16.4559 79.1192 13.7271 79.8031C13.0531 79.972 12.4123 80.222 11.8195 80.583C10.0411 81.661 8.65183 83.1363 7.47782 84.8319C7.3586 85.0025 7.13174 85.1846 7.24931 85.4115C7.36853 85.6433 7.64672 85.5473 7.85701 85.5473C9.59568 85.5539 11.3327 85.5506 13.0714 85.5506V85.5539ZM55.3441 85.5009C57.0231 85.5009 58.7022 85.4811 60.3812 85.5109C60.984 85.5224 61.2671 85.3386 61.1794 84.7111C61.0916 84.0851 61.0635 83.4476 60.9277 82.8317C60.3564 80.227 58.424 79.0778 55.8624 79.8494C53.1252 80.6741 51.3518 82.6959 49.7505 84.9081C49.3796 85.4198 49.7009 85.4993 50.1413 85.4976C51.875 85.4943 53.6104 85.4976 55.3441 85.4976V85.5009ZM89.8557 86.1649C90.1306 86.1649 90.4071 86.1599 90.682 86.1649C91.0811 86.1749 91.3063 86.0142 91.3046 85.587C91.298 84.1828 91.0563 82.83 90.2383 81.661C89.3242 80.3545 87.8389 80.2916 86.7179 81.454C86.0605 82.1362 85.6283 82.9724 85.1001 83.744C84.749 84.254 84.8782 84.5604 85.3865 84.87C86.7642 85.7096 88.2479 86.1368 89.8541 86.1633L89.8557 86.1649Z" fill="white"/>
<path d="M30.867 91.0878C31.011 91.2087 31.1419 91.3064 31.2578 91.419C31.8489 91.9952 32.4252 92.5864 33.0295 93.1477C33.3392 93.4359 33.3607 93.6627 33.0577 93.9674C32.4765 94.5519 31.9069 95.1513 31.3555 95.7657C31.0591 96.0968 30.8239 96.0588 30.5375 95.7657C29.9413 95.1563 29.327 94.5652 28.7243 93.9608C28.5239 93.7604 28.3302 93.5567 28.615 93.267C29.2492 92.6178 29.8735 91.9572 30.5093 91.3097C30.5987 91.2186 30.7329 91.169 30.867 91.0878Z" fill="white"/>
<path d="M74.3668 71.1263C74.5141 71.2472 74.6499 71.3383 74.7642 71.4525C75.3669 72.052 75.9564 72.6663 76.5674 73.2575C76.829 73.5108 76.9102 73.7194 76.6204 74.0125C76.021 74.6169 75.4348 75.2329 74.8585 75.8572C74.5969 76.1403 74.3866 76.1503 74.1084 75.8671C73.4742 75.2213 72.8202 74.5954 72.1661 73.9695C71.9376 73.7509 71.9459 73.5555 72.1562 73.3369C72.8053 72.6663 73.4494 71.9924 74.0985 71.3234C74.1697 71.2489 74.2657 71.1992 74.3668 71.1263Z" fill="white"/>
<path d="M56.8111 73.2541C56.5776 73.2508 54.2677 70.9707 54.3074 70.7819C54.3339 70.6577 54.4266 70.5368 54.5177 70.4408C55.1088 69.8248 55.7215 69.2287 56.2977 68.5994C56.5809 68.2915 56.7945 68.3494 57.0512 68.6077C57.6523 69.2138 58.2616 69.8115 58.8677 70.4126C59.0548 70.5981 59.2137 70.8067 58.9852 71.0535C58.3312 71.7605 57.6655 72.4593 56.9998 73.1548C56.9485 73.2094 56.8591 73.2276 56.8094 73.2508L56.8111 73.2541Z" fill="white"/>
<path d="M24.7899 39.7724C25.1261 40.4083 25.3562 41.0723 25.4854 41.7661C25.3927 41.8058 25.3016 41.8439 25.2089 41.8836C24.8644 41.1782 24.52 40.4728 24.174 39.7691C24.3793 39.7708 24.5829 39.7724 24.7883 39.7741L24.7899 39.7724Z" fill="white"/>
<path d="M69.9936 40.7675C69.8694 41.1683 69.7369 41.564 69.3196 41.9068C69.1855 41.3272 69.3908 40.9381 69.6276 40.5573C69.7501 40.6268 69.8727 40.698 69.9936 40.7675Z" fill="white"/>
<path d="M23.3128 35.8033C23.4884 36.0533 23.5827 36.3332 23.6126 36.6362C23.2433 36.4557 23.3244 36.1129 23.3128 35.8033Z" fill="white"/>
<path d="M23.967 37.6447C23.9902 37.6894 24.0151 37.7341 24.0382 37.7788C23.9985 37.7423 23.9753 37.6976 23.967 37.6447Z" fill="white"/>
<path d="M69.881 39.774C69.9124 39.7045 69.9439 39.6333 69.9737 39.5637C69.9422 39.6333 69.9108 39.7045 69.881 39.774Z" fill="white"/>
<path d="M40.0223 24.3811C40.0025 22.1953 40.385 20.1536 42.0541 18.5557C43.8971 16.7905 46.8362 16.2888 49.2174 17.3436C51.5108 18.3587 53.1766 20.8855 53.0987 23.2253C53.0491 24.7139 52.1317 25.6362 50.6696 25.7173C49.7059 25.772 49.1064 25.2537 48.6858 24.4903C48.3812 23.9373 48.1841 23.3263 47.9126 22.755C47.6062 22.1109 47.131 21.6307 46.3643 21.7714C45.5678 21.9171 45.1522 22.5016 45.0462 23.2816C44.7929 25.1428 46.7998 28.0952 48.6345 28.5389C49.0766 28.6449 49.436 28.7575 49.4807 29.2725C49.5055 29.5706 49.4061 29.8355 49.1296 29.9647C48.6792 30.175 48.3944 29.8968 48.0401 29.6351C46.9935 28.8635 45.9653 28.0886 45.2383 26.9841C44.3789 25.6809 43.7778 24.3148 44.2531 22.707C44.7051 21.1803 45.9553 20.4749 47.3595 20.9368C47.9142 21.119 48.3216 21.4734 48.5617 21.9999C48.8018 22.5265 49.0087 23.0663 49.2406 23.5962C49.6578 24.5549 50.2126 24.9027 50.9991 24.7321C51.9131 24.5334 51.9877 23.8843 51.986 23.0978C51.9777 20.6918 50.7259 18.9084 48.4292 18.1335C46.0514 17.3304 43.5162 18.0093 42.1899 19.8721C41.15 21.3309 40.9397 23.0199 41.0208 24.7636C41.0341 25.0567 41.2212 25.2703 41.3603 25.5071C41.5391 25.8117 41.4812 26.0816 41.2642 26.3433C41.0622 26.585 40.8089 26.6513 40.5224 26.5536C40.2045 26.4443 40.0273 26.2108 40.024 25.868C40.019 25.3729 40.024 24.8762 40.024 24.3811H40.0223Z" fill="white"/>
<path d="M46.0563 40.0705C44.7266 39.1084 43.4764 38.0917 42.1269 37.2058C38.5933 34.8859 34.7368 33.4486 30.559 32.7913C28.6216 32.4866 28.9992 32.7532 28.5554 30.8804C28.4279 30.3439 28.3103 29.8057 28.1812 29.2709C28.0653 28.7857 28.2226 28.6913 28.6928 28.8304C33.5064 30.2545 38.1247 32.0826 42.0805 35.28C43.3903 36.3381 44.6157 37.4857 45.5794 38.8832C45.8212 39.2343 46.0447 39.5969 46.0563 40.0705Z" fill="white"/>
<path d="M48.3529 39.9446C51.9925 34.4836 57.495 31.7265 63.4561 29.6451C64.3138 29.3454 65.1964 29.1119 66.0575 28.8238C66.5493 28.6599 66.647 28.8056 66.5277 29.2758C66.3191 30.1038 66.1171 30.9367 65.9664 31.7762C65.8687 32.3276 65.5822 32.5545 65.0474 32.6472C62.6845 33.0628 60.3232 33.4768 58.0762 34.3726C55.2364 35.5036 52.6234 37.0121 50.229 38.908C49.6677 39.3518 49.0732 39.7542 48.4953 40.1764C48.4473 40.0986 48.3993 40.0208 48.3529 39.943V39.9446Z" fill="white"/>
<path d="M48.55 37.8615C48.9756 35.9606 49.9774 34.3975 51.1961 32.9684C53.3537 30.4366 55.9683 28.4893 58.939 27.0123C59.1956 26.8848 59.502 26.6182 59.7735 26.8268C60.0153 27.0123 59.7818 27.3401 59.7719 27.6051C59.6974 29.4464 59.0234 30.5492 57.0347 31.2082C53.8654 32.2564 51.5223 34.6756 49.2703 37.0866C49.0302 37.3449 48.7902 37.6032 48.55 37.8615Z" fill="white"/>
<path d="M34.8493 27.1646C34.8924 26.4145 35.3394 26.802 35.6176 26.9378C38.1561 28.1879 40.471 29.7643 42.4514 31.7977C43.7248 33.1042 44.8657 34.515 45.634 36.1891C45.7483 36.4358 45.8244 36.7008 45.9304 36.9525C45.9983 37.1147 46.0529 37.3068 45.9022 37.4012C45.7333 37.5072 45.6207 37.3333 45.5081 37.2042C43.5675 35.0052 41.4115 33.0645 38.8102 31.6636C37.959 31.2049 37.0798 30.8026 36.1392 30.5724C35.6474 30.4515 35.3875 30.2263 35.3146 29.7031C35.197 28.8586 35.0099 28.024 34.8477 27.1646H34.8493Z" fill="white"/>
<path d="M42.9151 23.8032C43.1586 25.8399 43.7298 27.7276 45.4387 29.0672C45.7285 29.2941 45.8957 29.5474 45.7848 29.915C45.697 30.2048 45.4817 30.3786 45.187 30.42C44.8492 30.4664 44.5478 30.3074 44.4468 30.0094C44.1686 29.1798 43.5311 28.5804 43.137 27.827C42.2362 26.1032 41.6285 24.3231 42.1236 22.3576C42.632 20.3374 44.5644 18.8174 46.573 18.7958C48.7057 18.7726 50.403 20.1089 51.0206 22.2781C51.1101 22.5927 51.2558 22.8908 51.3866 23.1922C51.5389 23.5432 51.4578 23.8446 51.1846 24.0863C50.9577 24.2867 50.6795 24.3148 50.4129 24.1758C50.1016 24.0135 50.0569 23.7237 50.0768 23.3975C50.1877 21.6506 49.0336 20.1603 47.333 19.8374C45.6506 19.5178 43.7133 20.6405 43.1768 22.2516C43.0112 22.75 42.8986 23.2617 42.9151 23.8032Z" fill="white"/>
<path d="M53.9365 18.8902C53.9415 19.1105 53.857 19.238 53.6848 19.3108C53.4762 19.4002 53.3106 19.3323 53.1632 19.1817C52.7989 18.8041 52.4413 18.4216 52.072 18.0507C48.7851 14.7406 43.6387 14.9625 40.6697 18.5425C40.4047 18.8604 40.1961 19.2015 40.1531 19.6436C40.115 20.0377 39.8484 20.2944 39.4377 20.3242C39.0966 20.349 38.8449 20.157 38.7274 19.8539C38.5783 19.4681 38.7091 19.137 39.0767 18.9449C39.4245 18.7627 39.5387 18.4067 39.7523 18.1269C43.1634 13.6444 50.1297 13.6428 53.5242 18.1302C53.7064 18.3719 53.8902 18.6137 53.9365 18.8919V18.8902Z" fill="white"/>
<path d="M35.9703 17.7378C34.2515 17.7344 32.9169 16.3568 32.9302 14.5982C32.9417 12.9837 34.3327 11.6276 35.9786 11.6243C37.714 11.621 39.0751 13.002 39.0469 14.7373C39.0204 16.466 37.7123 17.7427 35.9703 17.7394V17.7378ZM38.3896 14.7224C38.0551 15.1331 38.06 15.8915 37.2023 15.749C36.0846 15.5636 34.9602 15.7507 33.8243 15.749C34.2135 16.9777 35.6839 17.5672 36.9175 17.0307C38.0054 16.5571 38.6098 15.6033 38.373 14.7323C38.6148 13.5136 37.6875 12.3512 36.3197 12.1608C35.096 11.9902 33.6405 13.0251 33.5544 14.1213C33.5296 14.4492 33.6339 14.7158 33.8839 14.9261C34.0942 15.1016 34.3525 15.1364 34.5827 15.0337C34.8443 14.9161 34.6374 14.7025 34.6158 14.5303C34.5595 14.0882 34.6357 13.7239 35.1076 13.4606C35.255 13.974 34.7334 14.2654 34.9834 14.6429C35.3858 14.6976 35.3146 14.2902 35.457 14.171C36.1392 14.3896 34.9089 15.4162 35.9952 15.3748C36.7801 15.345 35.871 14.6032 36.3578 14.3283C36.5234 14.4144 36.6277 14.8681 36.8678 14.6727C37.2371 14.3714 36.6542 14.0054 36.8314 13.555C37.2619 13.7951 37.2718 14.1727 37.2354 14.5353C37.1808 15.0917 37.4457 15.1562 37.8746 14.9907C38.0534 14.9211 38.2173 14.8151 38.3879 14.7257L38.3896 14.7224Z" fill="white"/>
<path d="M43.9616 6.81229C44.6836 5.64324 46.0861 5.11336 47.3777 5.52402C48.7603 5.96282 49.5783 7.18651 49.4972 8.6917C49.4243 10.0528 48.401 11.2351 47.0829 11.4669C45.8013 11.6921 44.2481 11.1325 43.8109 9.86074C44.2431 9.36233 44.7995 9.28616 45.4304 9.30106C46.9405 9.33418 46.9405 9.31099 47.0846 7.82899C47.0895 7.77766 47.1309 7.73129 47.1558 7.68162C47.227 7.22957 47.6211 7.30905 47.9142 7.20804C48.0864 7.14843 48.3497 7.27593 48.4258 7.05239C48.5136 6.79573 48.2503 6.67154 48.098 6.53575C47.0912 5.6333 45.7946 5.7459 44.4815 6.83547C44.3077 6.82719 44.1355 6.82057 43.9616 6.81229ZM45.4519 9.5246C45.4502 9.53785 45.4486 9.54944 45.4469 9.56269C45.3376 9.56269 45.2267 9.55275 45.1191 9.56434C44.8856 9.59249 44.561 9.46665 44.4534 9.7349C44.3292 10.0445 44.6388 10.2217 44.8409 10.389C45.8195 11.1921 47.2916 11.1788 48.1625 10.3658C48.4043 10.1406 48.7388 9.82763 48.6411 9.56434C48.5103 9.2133 48.0384 9.29113 47.6873 9.28616C47.4936 9.2845 47.2882 9.2994 47.1856 9.49811C47.02 9.82432 46.7964 9.77795 46.4984 9.68688C46.1639 9.58421 45.8013 9.57262 45.4519 9.52295V9.5246Z" fill="white"/>
<path d="M51.5289 14.3449C51.408 14.7539 51.1166 14.8333 50.7556 14.7091C50.2356 14.5303 49.7339 14.2952 49.209 14.1379C46.8858 13.4407 44.6404 13.7322 42.4613 14.724C42.3106 14.7919 42.1649 14.8747 42.0093 14.9244C41.7642 15.0022 41.4926 15.0453 41.3602 14.7605C41.1962 14.4094 41.4132 14.1842 41.7046 14.0319C42.5855 13.5699 43.5078 13.199 44.4831 13.0069C46.7053 12.5731 48.8629 12.8099 50.9394 13.7272C51.2159 13.8497 51.5073 13.9657 51.5305 14.3432L51.5289 14.3449Z" fill="white"/>
<path d="M51.5239 28.0322C48.7619 28.0256 46.8014 26.6777 46.1804 24.4688C46.1059 24.2055 46.0628 23.929 46.0397 23.6574C46.0181 23.3875 46.1191 23.1491 46.4172 23.1027C46.7169 23.0564 46.8759 23.2633 46.9537 23.5167C47.058 23.8595 47.1027 24.2204 47.2286 24.5549C47.7568 25.9624 49.4077 27.0685 50.9195 27.0685C51.2126 27.0685 51.4494 26.9841 51.6746 26.8003C51.9677 26.5618 52.2839 26.5552 52.5737 26.8152C52.7989 27.0172 52.8767 27.2772 52.7824 27.5669C52.6631 27.9329 52.3866 28.077 52.014 28.0604C51.7938 28.0505 51.5736 28.0372 51.5222 28.0339L51.5239 28.0322Z" fill="white"/>
<path d="M43.9617 6.81226C44.1355 6.82054 44.3077 6.82717 44.4816 6.83545C44.4949 6.93977 44.5081 7.04409 44.5214 7.14841L44.4849 7.17987L44.5197 7.14675C45.4437 7.09873 46.3478 7.15172 47.1558 7.6816C47.131 7.73127 47.0896 7.77764 47.0846 7.82897C46.9406 9.31097 46.9406 9.33581 45.4304 9.30104C44.7995 9.28779 44.2448 9.36396 43.811 9.86072L43.8143 9.84416C43.7746 9.77793 43.7332 9.71335 43.6934 9.64711C43.3026 8.65525 43.3374 7.70478 43.9633 6.81061L43.9617 6.81226Z" fill="white"/>
<path d="M43.6917 9.6488C43.7314 9.71338 43.7728 9.77962 43.8125 9.84585C43.7728 9.78127 43.7314 9.71504 43.6917 9.6488Z" fill="white"/>
<path d="M44.5179 7.14679L44.4832 7.17991L44.5212 7.14845L44.5179 7.14679Z" fill="white"/>
<path d="M35.9521 12.9291C36.1673 12.9672 36.2601 13.0831 36.2535 13.2685C36.2485 13.4523 36.1541 13.5732 35.9571 13.5699C35.717 13.5649 35.6242 13.4076 35.6408 13.1957C35.6557 13.0036 35.7948 12.9307 35.9504 12.9307L35.9521 12.9291Z" fill="white"/>
<rect x="54.271" y="11.6243" width="5.96113" height="5.96113" rx="2.98057" stroke="white" stroke-width="0.5"/>
<path d="M58.5229 14.544C58.5229 14.9625 58.523 15.3812 58.5228 15.7997C58.5228 15.9402 58.4303 16.0084 58.2989 15.963C58.2846 15.958 58.2699 15.939 58.2659 15.9237C58.26 15.9007 58.2627 15.8751 58.2627 15.8507C58.2626 15.0137 58.2626 14.1765 58.2626 13.3394C58.2627 13.2002 58.3594 13.1291 58.4909 13.1764C58.5079 13.1825 58.5211 13.2228 58.5215 13.2475C58.5241 13.4242 58.5229 13.6009 58.5229 13.7775C58.5229 14.0331 58.5229 14.2885 58.5229 14.544Z" fill="white"/>
<path d="M56.0935 15.179C56.0935 14.801 56.0933 14.423 56.0937 14.0451C56.0939 13.9259 56.2379 13.8466 56.3413 13.911C56.3575 13.9211 56.363 13.958 56.3632 13.9825C56.3648 14.1946 56.3641 14.4066 56.3641 14.6188C56.3641 15.1572 56.3641 15.6956 56.364 16.234C56.3639 16.3894 56.3252 16.4247 56.1712 16.4263C56.1088 16.4269 56.0917 16.4041 56.0924 16.3454C56.0949 16.1524 56.0934 15.9593 56.0933 15.7662C56.0933 15.5706 56.0933 15.3748 56.0935 15.179Z" fill="white"/>
<path d="M58.0835 13.453C58.0835 13.4912 58.0835 13.5231 58.0835 13.555C58.0836 14.3086 58.0837 15.0621 58.0837 15.8156C58.0837 15.942 57.9699 16.0149 57.8542 15.9613C57.8425 15.956 57.8317 15.9386 57.8293 15.9251C57.8251 15.9014 57.8272 15.8764 57.8272 15.8519C57.8271 15.1119 57.8272 14.3721 57.8273 13.6321C57.8274 13.4568 57.8407 13.4438 58.0194 13.4479C58.0356 13.4483 58.0518 13.4504 58.0835 13.453Z" fill="white"/>
<path d="M56.7911 14.9086C56.7911 15.2105 56.7914 15.5124 56.791 15.8144C56.7908 15.9386 56.6631 16.018 56.5507 15.9597C56.5334 15.9508 56.5257 15.9098 56.5254 15.8837C56.5237 15.6117 56.5243 15.3397 56.5243 15.0677C56.5243 14.7249 56.5225 14.3822 56.5268 14.0395C56.5274 13.9979 56.5526 13.931 56.5822 13.9207C56.6401 13.9006 56.7091 13.9096 56.7731 13.914C56.7807 13.9145 56.7903 13.9612 56.7903 13.9866C56.7915 14.2938 56.7911 14.6012 56.7911 14.9086Z" fill="white"/>
<path d="M57.3907 14.9529C57.3907 14.6538 57.3902 14.3547 57.3908 14.0557C57.3911 13.9244 57.5164 13.8472 57.6317 13.9106C57.6488 13.9201 57.655 13.9615 57.6551 13.9881C57.6568 14.3063 57.6563 14.6244 57.6563 14.9424C57.6564 15.228 57.6564 15.5135 57.6563 15.7989C57.6562 15.9394 57.5561 16.0119 57.424 15.9616C57.4055 15.9546 57.3921 15.91 57.392 15.8827C57.3898 15.5729 57.3907 15.2629 57.3907 14.9529Z" fill="white"/>
<path d="M56.9628 14.9524C56.9627 14.648 56.9625 14.3436 56.9629 14.0391C56.9631 13.9244 57.1009 13.848 57.1991 13.9117C57.2168 13.9231 57.2215 13.9641 57.2217 13.9913C57.2234 14.2089 57.2228 14.4263 57.2227 14.6438C57.2227 15.0298 57.2228 15.4158 57.2225 15.8018C57.2224 15.9388 57.1226 16.0114 56.9956 15.9615C56.9772 15.9543 56.9644 15.9096 56.9643 15.8821C56.962 15.5722 56.9629 15.2624 56.9628 14.9524Z" fill="white"/>
<path d="M56.5238 13.5828C56.5242 13.5016 56.574 13.4496 56.6531 13.4481C56.7302 13.4467 56.7937 13.5075 56.7951 13.5841C56.7963 13.6553 56.7264 13.7215 56.6519 13.7196C56.5742 13.7175 56.5234 13.6634 56.5238 13.5828Z" fill="white"/>
<path d="M56.9596 13.5871C56.9582 13.5008 57.0085 13.4476 57.0912 13.4482C57.1643 13.4488 57.2257 13.5072 57.2293 13.5797C57.2328 13.65 57.1639 13.7199 57.0911 13.72C57.0131 13.7202 56.9609 13.6673 56.9596 13.5871Z" fill="white"/>
<path d="M57.6577 13.5813C57.6587 13.6565 57.6003 13.7184 57.5269 13.7197C57.4512 13.7211 57.3915 13.6641 57.3895 13.5886C57.3873 13.5048 57.4415 13.448 57.5238 13.4481C57.6021 13.4482 57.6567 13.5025 57.6577 13.5813Z" fill="white"/>
<path d="M57.9461 16.1065C58.0277 16.1051 58.0803 16.1537 58.0821 16.2324C58.084 16.3123 58.0251 16.3739 57.9478 16.3731C57.8767 16.3723 57.8128 16.3088 57.8124 16.2385C57.8119 16.1637 57.8685 16.1078 57.9461 16.1065Z" fill="white"/>
<path d="M58.5149 13.0404H58.2797C58.2551 12.9095 58.3591 12.7944 58.5149 12.7834V13.0404Z" fill="white"/>
</svg>
